<svg xmlns="http://www.w3.org/2000/svg" width="1657" height="559" viewBox="0 0 1657 559" version="1.1"><path d="M 0 31.500 C 0 52.212, 0.349 63, 1.018 63 C 2.306 63, 14.911 59.602, 21.500 57.478 C 24.250 56.592, 30.775 54.788, 36 53.470 C 41.225 52.151, 47.975 50.341, 51 49.446 C 54.025 48.552, 61.225 46.544, 67 44.984 C 72.775 43.424, 79.975 41.424, 83 40.539 C 90.032 38.482, 105.405 34.293, 124.749 29.163 C 133.135 26.939, 140.376 24.885, 140.840 24.599 C 141.631 24.110, 155.929 20.196, 185 12.509 C 191.875 10.691, 200.399 8.224, 203.942 7.027 C 211.093 4.610, 212.441 4.705, 226 8.584 C 230.675 9.921, 239.225 12.081, 245 13.384 C 250.775 14.686, 259.100 16.677, 263.500 17.807 C 267.900 18.938, 275.325 20.759, 280 21.854 C 284.675 22.950, 289.850 24.306, 291.500 24.869 C 296.962 26.731, 305.806 28.288, 307.415 27.671 C 308.753 27.157, 309 24.958, 309 13.531 L 309 0 154.500 0 L 0 0 0 31.500 M 373 21.941 C 373 34.584, 373.399 44.129, 373.942 44.464 C 374.882 45.045, 394.926 50.404, 402.500 52.099 C 423.408 56.779, 446.039 62.788, 447.584 64.070 C 449.554 65.704, 449.714 161.179, 447.750 162.763 C 446.597 163.692, 441.284 165.984, 433.250 169.016 C 429.540 170.416, 429.409 171.161, 431.571 178.596 C 433.428 184.984, 434.571 185.270, 440.952 180.947 C 446.105 177.456, 448.500 177.468, 448.500 180.986 C 448.500 182.877, 447.148 184.340, 442.650 187.316 C 437.508 190.719, 436.860 191.508, 437.292 193.844 C 437.986 197.599, 441.325 208.043, 445.015 218 C 448.182 226.549, 450.038 240.357, 448.307 242.500 C 447.863 243.050, 443.717 245.300, 439.093 247.500 C 434.469 249.700, 430.095 252.081, 429.373 252.791 C 427.867 254.272, 428.927 257.422, 435.906 272.206 C 438.167 276.994, 440.452 282.060, 440.986 283.463 C 441.783 285.558, 442.528 285.968, 445.162 285.757 C 448.085 285.523, 448.437 285.809, 449.144 289 C 450.267 294.073, 450.235 546.237, 449.111 546.932 C 448.605 547.244, 445.336 547.341, 441.846 547.146 C 438.355 546.951, 406.025 546.580, 370 546.321 C 320.830 545.968, 302.432 546.160, 296.204 547.094 C 284.013 548.920, 283.969 548.826, 287.583 528.774 C 288.180 525.458, 287.989 524.946, 285.848 524.132 C 284.524 523.629, 275.579 522.487, 265.971 521.594 C 256.362 520.701, 243.100 519.321, 236.500 518.528 C 229.900 517.735, 222.475 516.955, 220 516.793 L 215.500 516.500 212.317 523 C 210.566 526.575, 207.895 532.650, 206.382 536.500 C 203.107 544.833, 201.316 547.189, 198.555 546.794 C 195.344 546.335, 196.161 541.812, 201.464 530.679 C 204.038 525.277, 206.223 519.675, 206.321 518.229 C 206.522 515.278, 207.226 515.413, 171.500 511.534 C 163.250 510.638, 151.775 509.269, 146 508.492 C 140.225 507.715, 131.240 506.949, 126.032 506.790 L 116.564 506.500 114.532 510.609 C 110.962 517.827, 107.216 526.251, 103.464 535.500 C 99.302 545.762, 98.485 547, 95.878 547 C 92.507 547, 93.714 541.410, 100.603 525.116 C 104.234 516.527, 107.660 508.943, 108.215 508.263 C 110.307 505.698, 108.254 504, 103.062 504 C 100.311 504, 93.434 503.363, 87.780 502.583 C 63.580 499.249, 57.040 498.722, 55.518 499.985 C 53.314 501.814, 46.261 517.754, 42.969 528.347 C 42.482 529.913, 41.680 531.713, 41.186 532.347 C 40.693 532.981, 39.744 535.750, 39.079 538.500 C 37.176 546.366, 35.707 548, 30.536 548 C 28.106 548, 25.853 547.571, 25.529 547.047 C 24.776 545.829, 28.802 532.863, 34.703 517.500 C 46.518 486.741, 64.409 452.957, 84.409 423.639 C 88.859 417.115, 93.147 410.815, 93.937 409.639 C 95.216 407.736, 105.132 394.558, 112.047 385.572 C 126.073 367.346, 151.577 339.692, 173.804 318.607 C 177.801 314.816, 180.909 311.216, 180.710 310.607 C 180.026 308.513, 135.988 286.302, 127 283.518 C 125.625 283.092, 122.700 281.831, 120.500 280.716 C 111.534 276.173, 68.104 261.239, 56 258.537 C 52.425 257.740, 46.350 256.176, 42.500 255.063 C 36.204 253.243, 17.973 249.914, 7.500 248.672 C 5.300 248.411, 2.712 247.880, 1.750 247.492 C 0.146 246.845, 0 247.709, 0 257.814 L 0 268.841 3.235 269.552 C 5.015 269.943, 7.377 270.839, 8.485 271.544 C 9.593 272.250, 14.325 274.198, 19 275.873 C 23.675 277.549, 33.350 281.369, 40.500 284.362 C 69.915 296.673, 67.008 295.391, 89 305.752 C 93.675 307.954, 98.513 310.067, 99.750 310.446 C 103.069 311.462, 102.565 312.698, 96.750 317.804 C 80.018 332.496, 52.075 364.387, 31.472 392.302 C 27.088 398.243, 20.773 406.793, 17.441 411.302 C 14.108 415.811, 8.821 423.239, 5.691 427.809 L 0 436.119 0 497.560 L 0 559.001 828.750 558.751 L 1657.500 558.500 1657.803 500.500 C 1657.969 468.600, 1657.816 438.789, 1657.463 434.253 L 1656.821 426.007 1635.157 426.042 C 1623.242 426.061, 1612.916 426.434, 1612.210 426.870 C 1611.267 427.453, 1611.002 430.426, 1611.213 438.082 L 1611.500 448.500 1633 449.050 C 1644.825 449.353, 1654.612 449.690, 1654.750 449.800 C 1654.888 449.910, 1655 456.695, 1655 464.878 C 1655 476.019, 1654.667 480.032, 1653.673 480.856 C 1652.828 481.557, 1644.928 482.056, 1631.923 482.229 L 1611.500 482.500 1611.216 493.920 C 1611.005 502.383, 1611.264 505.550, 1612.216 506.154 C 1612.922 506.603, 1623.287 506.976, 1635.250 506.985 L 1657 507 1657 523.011 L 1657 539.022 1615.250 538.761 L 1573.500 538.500 1573.500 466.500 L 1573.500 394.500 1615.198 394.239 L 1656.895 393.978 1657.198 327.239 C 1657.364 290.533, 1657.363 201.888, 1657.196 130.250 L 1656.891 0 1014.946 0 L 373 0 373 21.941 M 580.681 84.653 C 580.306 85.027, 580 144.835, 580 217.560 C 580 337.210, 580.150 349.844, 581.582 350.393 C 583.949 351.301, 641.302 351.095, 642.754 350.173 C 643.750 349.541, 643.955 322.229, 643.754 216.939 L 643.500 84.500 612.431 84.236 C 595.343 84.091, 581.055 84.278, 580.681 84.653 M 759.720 84.613 C 759.324 85.009, 759 144.603, 759 217.044 C 759 327.316, 759.223 348.940, 760.369 349.892 C 761.345 350.701, 771.058 350.952, 794.119 350.764 L 826.500 350.500 827 309 L 827.500 267.500 856.500 266.849 C 874.816 266.438, 888.447 265.661, 893.500 264.738 C 935.586 257.054, 962.385 229.316, 967.954 187.678 C 972.133 156.427, 962.241 126.380, 941.378 106.958 C 933.876 99.974, 928.182 96.460, 917.183 92.026 C 899.761 85.001, 896.828 84.757, 824.470 84.299 C 789.253 84.076, 760.116 84.217, 759.720 84.613 M 1063.155 85.313 C 1062.541 86.053, 1060.873 89.756, 1059.448 93.543 C 1058.022 97.330, 1055.808 102.694, 1054.526 105.464 C 1051.520 111.963, 1042 134.816, 1042 135.534 C 1042 135.836, 1040.626 139.102, 1038.947 142.792 C 1033.478 154.809, 1027.171 169.844, 1023.437 179.763 C 1022.075 183.382, 1020.597 186.828, 1020.153 187.421 C 1019.708 188.015, 1018.534 190.750, 1017.544 193.500 C 1016.554 196.250, 1014.408 201.425, 1012.776 205 C 1011.144 208.575, 1008.779 214.200, 1007.522 217.500 C 1004.069 226.559, 997.131 243.278, 996.033 245.186 C 995.499 246.114, 993.234 251.485, 991 257.122 C 988.765 262.759, 986.561 267.850, 986.101 268.435 C 985.641 269.021, 984.468 271.975, 983.495 275 C 982.522 278.025, 980.817 282.300, 979.706 284.500 C 977.712 288.449, 974.590 295.953, 966.813 315.497 C 964.625 320.996, 962.502 325.946, 962.095 326.497 C 960.277 328.960, 952.906 349.039, 953.479 349.967 C 953.900 350.647, 966.503 351, 990.385 351 L 1026.651 351 1028.621 348.750 C 1029.704 347.512, 1031.182 344.700, 1031.905 342.500 C 1032.629 340.300, 1035.131 333.550, 1037.466 327.500 C 1039.801 321.450, 1041.989 315.708, 1042.328 314.740 C 1042.907 313.089, 1045.927 312.997, 1091.600 313.240 L 1140.256 313.500 1144.165 324.500 C 1146.315 330.550, 1149.004 338.425, 1150.141 342 C 1151.279 345.575, 1152.667 349.063, 1153.227 349.750 C 1154.578 351.409, 1227.023 351.577, 1228.675 349.925 C 1229.719 348.881, 1226.857 340.396, 1221.281 328 C 1220.167 325.525, 1218.330 321.025, 1217.199 318 C 1216.067 314.975, 1213.984 310.140, 1212.570 307.255 C 1211.157 304.370, 1210 301.404, 1210 300.665 C 1210 299.925, 1208.730 296.660, 1207.177 293.410 C 1202.873 284.400, 1201 280.028, 1201 278.988 C 1201 278.469, 1199.475 274.771, 1197.611 270.772 C 1195.746 266.772, 1193.493 261.336, 1192.602 258.690 C 1191.712 256.045, 1189.687 251.095, 1188.103 247.690 C 1186.519 244.286, 1184.469 239.261, 1183.547 236.525 C 1182.625 233.788, 1181.510 231.088, 1181.070 230.525 C 1180.296 229.534, 1176.063 219.318, 1167.802 198.503 C 1165.620 193.004, 1163.495 188.054, 1163.080 187.503 C 1162.665 186.951, 1161.277 183.575, 1159.994 180 C 1158.712 176.425, 1156.586 171.250, 1155.271 168.500 C 1153.955 165.750, 1151.947 160.800, 1150.807 157.500 C 1149.667 154.200, 1148.364 151.028, 1147.911 150.450 C 1147.458 149.873, 1145.468 145.148, 1143.489 139.950 C 1141.510 134.753, 1138.566 127.686, 1136.946 124.247 C 1135.325 120.808, 1134 117.556, 1134 117.019 C 1134 116.483, 1132.484 112.771, 1130.631 108.772 C 1128.778 104.772, 1126.506 99.250, 1125.582 96.500 C 1124.657 93.750, 1123.132 89.925, 1122.192 88 L 1120.482 84.500 1092.376 84.235 C 1069.813 84.022, 1064.050 84.234, 1063.155 85.313 M 1210.473 85.044 C 1210.118 85.618, 1210.321 86.681, 1210.923 87.407 C 1211.971 88.670, 1221.857 116.381, 1226.118 130 C 1227.236 133.575, 1229.258 139.316, 1230.611 142.758 C 1231.963 146.200, 1233.998 152.050, 1235.131 155.758 C 1236.264 159.466, 1237.814 163.850, 1238.575 165.500 C 1239.336 167.150, 1241.067 171.875, 1242.421 176 C 1245.078 184.093, 1250.887 200.944, 1258.966 224 C 1261.761 231.975, 1265.804 243.815, 1267.951 250.310 C 1270.098 256.806, 1272.259 262.656, 1272.752 263.310 C 1273.245 263.965, 1274.454 267.425, 1275.439 271 C 1276.423 274.575, 1278.145 279.750, 1279.265 282.500 C 1281.300 287.499, 1284.338 296.378, 1291.412 318 C 1293.481 324.325, 1295.620 330.338, 1296.165 331.361 C 1296.710 332.385, 1298.274 336.648, 1299.641 340.835 C 1301.007 345.021, 1302.602 349.021, 1303.185 349.723 C 1304.008 350.715, 1312.081 350.997, 1339.372 350.985 C 1358.693 350.976, 1375.032 350.631, 1375.683 350.217 C 1376.334 349.803, 1377.616 347.223, 1378.532 344.482 C 1379.449 341.742, 1380.812 338.150, 1381.562 336.500 C 1382.311 334.850, 1384.029 330.125, 1385.378 326 C 1386.728 321.875, 1390.138 311.975, 1392.956 304 C 1395.774 296.025, 1399.842 284.325, 1401.996 278 C 1404.150 271.675, 1408.010 260.650, 1410.574 253.500 C 1413.139 246.350, 1416.337 237.125, 1417.682 233 C 1419.026 228.875, 1420.824 223.700, 1421.676 221.500 C 1424.939 213.076, 1425.949 210.269, 1428.332 203 C 1434.882 183.024, 1438.235 173.239, 1439.471 170.500 C 1441.008 167.091, 1442.820 161.907, 1444.014 157.500 C 1444.461 155.850, 1445.803 152.025, 1446.996 149 C 1448.188 145.975, 1450.449 139.675, 1452.019 135 C 1459.103 113.907, 1463.313 101.931, 1466.160 94.775 C 1467.850 90.526, 1468.968 86.358, 1468.643 85.513 C 1468.125 84.162, 1463.660 84.007, 1431.839 84.237 L 1395.625 84.500 1393.399 93 C 1392.174 97.675, 1390.032 104.875, 1388.640 109 C 1387.247 113.125, 1385.198 119.875, 1384.087 124 C 1382.975 128.125, 1381.169 134.103, 1380.073 137.285 C 1378.976 140.467, 1377.133 146.767, 1375.976 151.285 C 1374.820 155.803, 1373.520 160.175, 1373.089 161 C 1372.657 161.825, 1371.284 166.100, 1370.039 170.500 C 1368.793 174.900, 1366.687 181.875, 1365.358 186 C 1364.029 190.125, 1361.793 197.765, 1360.390 202.977 C 1358.986 208.190, 1357.591 212.853, 1357.290 213.340 C 1356.989 213.827, 1354.817 220.812, 1352.463 228.863 C 1350.109 236.913, 1347.039 247.325, 1345.641 252 C 1344.244 256.675, 1342.610 262.413, 1342.011 264.750 C 1340.426 270.939, 1338.574 270.087, 1336.577 262.250 C 1335.631 258.538, 1333.333 250.550, 1331.471 244.500 C 1329.608 238.450, 1327.352 230.800, 1326.457 227.500 C 1325.561 224.200, 1323.808 218.350, 1322.561 214.500 C 1321.314 210.650, 1319.485 204.575, 1318.496 201 C 1317.507 197.425, 1315.238 189.775, 1313.454 184 C 1311.670 178.225, 1309.214 170.125, 1307.995 166 C 1305.045 156.011, 1297.877 132.001, 1292.320 113.500 C 1289.842 105.250, 1286.987 95.693, 1285.974 92.263 C 1284.962 88.832, 1283.852 85.570, 1283.508 85.013 C 1282.631 83.594, 1211.350 83.625, 1210.473 85.044 M 1501.667 84.667 C 1501.300 85.033, 1501 144.568, 1501 216.967 C 1501 318.015, 1501.279 348.879, 1502.200 349.800 C 1503.112 350.712, 1521.283 350.996, 1577.950 350.985 C 1618.953 350.976, 1653.075 350.604, 1653.778 350.158 C 1655.703 348.937, 1655.773 292.112, 1653.851 290.871 C 1653.108 290.391, 1634.165 290.026, 1611.755 290.061 C 1589.345 290.095, 1570.557 289.844, 1570.005 289.503 C 1568.359 288.486, 1568.675 246.514, 1570.339 245.134 C 1571.260 244.370, 1584.287 243.941, 1612.089 243.761 L 1652.500 243.500 1652.500 214.500 L 1652.500 185.500 1612.089 185.239 C 1584.287 185.059, 1571.260 184.630, 1570.339 183.866 C 1568.517 182.354, 1568.390 146.010, 1570.200 144.200 C 1571.095 143.305, 1581.898 143, 1612.641 143 C 1640.308 143, 1654.095 142.655, 1654.529 141.952 C 1654.886 141.376, 1655.250 128.331, 1655.339 112.963 C 1655.468 90.503, 1655.239 84.921, 1654.168 84.511 C 1652.166 83.743, 1502.437 83.896, 1501.667 84.667 M 828.200 144.200 C 827.321 145.079, 827 153.311, 827 175 C 827 196.689, 827.321 204.921, 828.200 205.800 C 829.695 207.295, 861.268 207.428, 871.269 205.982 C 884.888 204.012, 896.461 196.204, 898.928 187.321 C 900.793 180.603, 900.277 165.499, 898.013 160.529 C 893.746 151.161, 883.315 145.544, 867.381 144.033 C 852.118 142.586, 829.719 142.681, 828.200 144.200 M 1090.313 171.250 C 1089.800 171.938, 1088.198 176.325, 1086.753 181 C 1079.754 203.635, 1075.836 216.191, 1073.494 223.500 C 1067.937 240.841, 1063.956 255.442, 1064.440 256.705 C 1064.850 257.772, 1070.292 257.980, 1092.225 257.766 C 1118.784 257.507, 1119.497 257.447, 1119.397 255.500 C 1119.269 253.015, 1115.057 238.003, 1111.681 228 C 1107.413 215.352, 1101.308 195.906, 1099.054 187.780 C 1097.876 183.533, 1096.260 178.808, 1095.462 177.280 C 1094.665 175.751, 1094.010 173.488, 1094.006 172.250 C 1093.999 169.815, 1091.822 169.226, 1090.313 171.250 M 411.761 178.065 C 401.511 182.572, 398.528 184.468, 398.199 186.688 C 397.834 189.145, 402.892 199.928, 405.036 201.263 C 406.189 201.981, 409.096 200.581, 416.706 195.642 C 422.281 192.025, 427.118 188.619, 427.455 188.073 C 427.792 187.528, 427.594 186.276, 427.015 185.291 C 426.436 184.306, 425.366 181.700, 424.637 179.500 C 422.938 174.373, 420.720 174.126, 411.761 178.065 M 375.500 195.077 C 368.900 198.379, 362.900 201.678, 362.167 202.409 C 361.056 203.516, 361.287 204.637, 363.551 209.119 C 367.371 216.682, 371.860 223, 373.414 223 C 374.139 223, 378.055 220.736, 382.116 217.970 C 386.177 215.203, 391.413 211.719, 393.750 210.227 C 396.087 208.735, 398 206.734, 398 205.779 C 398 204.825, 396.415 200.659, 394.478 196.522 C 392.060 191.357, 390.415 189.011, 389.228 189.036 C 388.278 189.056, 382.100 191.774, 375.500 195.077 M 419.558 201.485 C 406.585 209.422, 407.004 208.695, 410.758 216.736 C 412.495 220.456, 416.169 228.450, 418.923 234.500 C 421.678 240.550, 424.609 245.643, 425.438 245.818 C 427.194 246.189, 441.475 239.337, 443.148 237.322 C 444.005 236.289, 443.900 235.042, 442.720 232.227 C 441.860 230.177, 439.559 223.550, 437.608 217.500 C 432.501 201.671, 430.591 196.696, 429.480 196.333 C 428.941 196.157, 424.476 198.475, 419.558 201.485 M 345.500 210.355 C 342.200 212.175, 336.054 215.556, 331.843 217.869 C 327.631 220.181, 323.961 222.658, 323.687 223.373 C 323.413 224.088, 324.608 226.485, 326.344 228.699 C 328.080 230.913, 331.635 235.712, 334.245 239.362 C 337.124 243.391, 339.707 246, 340.816 246 C 342.387 246, 353.610 238.388, 363.500 230.614 L 366.500 228.256 363.720 222.878 C 358.758 213.277, 354.533 207.035, 353 207.040 C 352.175 207.043, 348.800 208.535, 345.500 210.355 M 388.500 221.538 C 382.450 225.633, 377.369 229.587, 377.209 230.324 C 376.931 231.604, 378.203 234.008, 388.149 251 C 394.469 261.797, 396.064 264, 397.565 264 C 398.299 264, 401.060 262.585, 403.700 260.855 C 406.340 259.126, 410.626 256.314, 413.224 254.605 C 415.823 252.897, 417.960 250.977, 417.974 250.339 C 418.007 248.842, 404.856 218.676, 402.677 215.250 C 401.353 213.168, 399.935 213.797, 388.500 221.538 M 310.948 229.807 C 308.501 231.371, 302.563 235.084, 297.750 238.060 C 292.938 241.035, 289 244.065, 289 244.792 C 289 246.838, 308.077 268.458, 310.206 268.826 C 312.040 269.142, 328.376 257.601, 332.346 253.184 C 334.156 251.170, 334.120 251.024, 330.543 245.815 C 323.546 235.627, 317.469 227.656, 316.436 227.312 C 315.864 227.121, 313.394 228.244, 310.948 229.807 M 357 243.573 C 350.675 248.280, 345.352 252.546, 345.171 253.053 C 344.862 253.917, 367.431 285.530, 369.087 286.554 C 369.509 286.815, 372.699 284.635, 376.177 281.711 C 379.655 278.787, 384.188 275.128, 386.250 273.579 C 388.403 271.962, 390 269.908, 390 268.755 C 390 267.651, 387.798 263.092, 385.107 258.624 C 382.416 254.156, 378.204 247.125, 375.748 243 C 373.292 238.875, 370.657 235.391, 369.892 235.257 C 369.126 235.123, 363.325 238.865, 357 243.573 M 0.378 258 C 0.378 264.325, 0.541 266.913, 0.739 263.750 C 0.937 260.587, 0.937 255.412, 0.739 252.250 C 0.541 249.088, 0.378 251.675, 0.378 258 M 276.384 251.769 C 261.996 261.316, 247 272.189, 247 273.076 C 247 274.206, 273.824 298.422, 275.504 298.808 C 276.240 298.978, 280.591 295.818, 285.171 291.786 C 289.752 287.754, 295.863 282.510, 298.750 280.134 C 301.637 277.758, 304 275.154, 304 274.348 C 304 272.128, 283.145 248.966, 281.194 249.019 C 280.812 249.029, 278.648 250.267, 276.384 251.769 M 331.143 262.750 C 327.849 265.363, 323.111 269.075, 320.615 271 C 318.118 272.925, 316.059 275.077, 316.038 275.782 C 315.995 277.231, 343.962 309, 345.281 309 C 346.893 309, 361.833 294.500, 362.520 292.270 C 363.054 290.535, 362.002 288.425, 357.782 282.770 C 354.798 278.771, 349.728 271.900, 346.515 267.500 C 340.889 259.795, 339.287 258.048, 337.816 258.015 C 337.440 258.007, 334.437 260.137, 331.143 262.750 M 410.500 264.025 C 405.550 267.278, 401.365 270.575, 401.200 271.351 C 401.034 272.127, 401.934 274.362, 403.200 276.316 C 404.465 278.271, 408.359 284.849, 411.854 290.935 C 415.349 297.021, 418.780 302, 419.479 302 C 421.206 302, 436 291.119, 436 289.849 C 436 286.638, 422.250 257.988, 420.740 258.055 C 420.058 258.085, 415.450 260.771, 410.500 264.025 M 383.616 284.056 C 378.327 288.486, 374 292.558, 374 293.104 C 374 293.650, 377.286 298.462, 381.303 303.798 C 385.319 309.134, 389.617 315.164, 390.853 317.198 C 394.565 323.310, 396.039 323.078, 405.032 314.971 C 409.414 311.021, 413 307.131, 413 306.327 C 413 305.524, 411.926 303.434, 410.614 301.683 C 409.302 299.932, 407.268 296.587, 406.093 294.249 C 402.978 288.046, 395.040 276, 394.068 276 C 393.608 276, 388.905 279.625, 383.616 284.056 M 233.882 282.293 C 219.569 293.011, 205.003 305.429, 205.031 306.889 C 205.067 308.695, 204.842 308.519, 221.859 320.094 C 238.023 331.088, 239.399 331.988, 240.047 331.995 C 240.582 332, 252.373 321.243, 264.449 309.733 L 270.500 303.965 266.500 300.340 C 264.300 298.346, 257.923 292.504, 252.329 287.357 C 246.734 282.211, 241.559 278.019, 240.829 278.043 C 240.098 278.067, 236.972 279.980, 233.882 282.293 M 294.808 291.786 C 287.827 297.679, 282.090 303.262, 282.058 304.193 C 282.026 305.125, 282.900 306.517, 283.999 307.287 C 285.098 308.057, 291.052 313.370, 297.229 319.093 C 315.932 336.424, 317.686 338, 318.268 338 C 318.577 338, 323.610 332.816, 329.453 326.481 C 336.768 318.550, 339.832 314.540, 339.289 313.608 C 336.917 309.537, 310.493 281.006, 309.123 281.036 C 308.230 281.057, 301.789 285.894, 294.808 291.786 M 358.360 306.195 C 353.742 310.703, 350.084 314.713, 350.232 315.107 C 350.829 316.701, 374.265 343, 375.089 343 C 376.037 343, 389.271 329.456, 389.835 327.909 C 390.281 326.686, 369.153 298, 367.806 298 C 367.228 298, 362.977 301.688, 358.360 306.195 M 269.261 314.161 C 255.819 326.203, 246.888 335.265, 247.328 336.414 C 247.588 337.090, 253.358 341.409, 260.150 346.011 C 266.943 350.612, 276.988 357.443, 282.473 361.189 C 287.959 364.935, 292.954 368, 293.573 368 C 294.193 368, 298.089 363.599, 302.232 358.221 C 306.374 352.842, 310.491 347.837, 311.382 347.098 C 313.845 345.054, 313.335 342.670, 309.742 339.434 C 307.949 337.820, 299.665 330.313, 291.331 322.750 C 282.998 315.188, 275.919 309, 275.600 309 C 275.282 309, 272.429 311.322, 269.261 314.161 M 185.365 323.375 C 165.091 342.734, 155 352.905, 155 353.979 C 155 354.568, 156.166 355.493, 157.590 356.034 C 160.020 356.958, 170.898 362.092, 189.537 371.111 C 193.958 373.250, 198.066 375, 198.667 375 C 199.268 375, 201.346 373.087, 203.285 370.750 C 205.224 368.413, 213.126 359.975, 220.844 352 C 233.935 338.476, 234.765 337.390, 233.189 335.869 C 229.586 332.390, 199.809 313, 198.069 313 C 197.058 313, 191.341 317.669, 185.365 323.375 M 335.344 329.698 C 331.030 334.482, 326.698 339.221, 325.718 340.230 C 323.483 342.531, 323.984 343.386, 331.500 350.103 C 334.800 353.053, 340.808 358.511, 344.851 362.233 C 352.329 369.116, 354.274 370.082, 355.700 367.619 C 356.727 365.845, 362.521 358.672, 366.940 353.705 C 370.048 350.211, 370.251 349.628, 369.044 347.669 C 365.967 342.673, 346.366 321.125, 344.844 321.065 C 343.933 321.029, 339.658 324.914, 335.344 329.698 M 226.508 355.754 C 219.362 363.314, 211.784 371.208, 209.668 373.295 C 207.552 375.383, 206.038 377.657, 206.304 378.350 C 206.570 379.043, 209.873 380.895, 213.644 382.466 C 217.415 384.036, 221.175 385.854, 222 386.506 C 222.825 387.157, 225.300 388.392, 227.500 389.250 C 229.700 390.108, 239.098 394.478, 248.385 398.960 C 257.672 403.443, 265.822 406.899, 266.496 406.640 C 267.170 406.381, 269.499 403.544, 271.671 400.335 C 273.844 397.126, 277.143 392.250, 279.003 389.500 C 280.863 386.750, 283.959 382.549, 285.883 380.164 C 288.647 376.738, 289.161 375.479, 288.333 374.164 C 287.263 372.468, 280.459 367.613, 257.727 352.324 C 250.701 347.599, 244.712 343.343, 244.418 342.867 C 242.623 339.962, 238.905 342.637, 226.508 355.754 M 312.663 355.750 C 298.692 372.676, 298.999 371.991, 303.745 375.647 C 305.783 377.216, 310.212 380.300, 313.587 382.500 C 325.904 390.527, 328.554 392.341, 331.327 394.648 C 332.881 395.942, 334.472 397, 334.861 397 C 335.251 397, 338.640 392.267, 342.393 386.483 C 348.357 377.291, 349.046 375.757, 347.858 374.308 C 344.987 370.802, 320.443 349, 319.367 349 C 318.744 349, 315.727 352.038, 312.663 355.750 M 141 368.661 C 131.405 379.736, 122.576 390.401, 117.500 397.050 C 115.300 399.931, 112.340 403.686, 110.923 405.394 C 109.505 407.102, 106.928 410.591, 105.196 413.147 C 101.395 418.753, 101.654 419.073, 112 421.552 C 116.125 422.540, 122.650 424.196, 126.500 425.232 C 143.779 429.881, 152.272 431.831, 153.343 431.393 C 153.979 431.133, 156.368 428.350, 158.651 425.210 C 164.851 416.683, 179.149 398.591, 187.053 389.272 L 194.031 381.045 190.266 378.711 C 188.195 377.427, 184.925 375.768, 183 375.022 C 181.075 374.277, 176.575 372.217, 173 370.443 C 158.568 363.285, 151.315 360, 149.943 360.003 C 149.150 360.004, 145.125 363.901, 141 368.661 M 292.585 382.250 C 287.424 388.959, 283.365 394.659, 280.178 399.673 C 278.370 402.518, 276.240 405.386, 275.445 406.046 C 271.917 408.973, 273.729 410.930, 284.750 416.092 C 290.663 418.861, 300.058 423.404, 305.629 426.187 C 311.200 428.970, 316.308 431.064, 316.981 430.840 C 317.653 430.616, 319.170 428.197, 320.352 425.466 C 321.533 422.735, 324.445 417.011, 326.822 412.746 C 329.200 408.481, 331 404.253, 330.822 403.351 C 330.517 401.795, 297.913 379, 295.994 379 C 295.494 379, 293.960 380.462, 292.585 382.250 M 195.430 389.750 C 183.023 403.977, 162 430.976, 162 432.683 C 162 434.188, 168.598 436.363, 184 439.934 C 191.425 441.656, 198.546 443.506, 199.824 444.045 C 201.103 444.584, 207.178 446.131, 213.324 447.484 C 219.471 448.836, 227.425 450.852, 231 451.964 C 234.575 453.075, 237.786 453.988, 238.135 453.992 C 238.692 453.999, 240.716 450.769, 248.612 437.273 C 249.650 435.498, 253.118 429.714, 256.317 424.419 C 259.516 419.124, 261.902 414.188, 261.619 413.449 C 261.102 412.102, 257.967 410.530, 226.500 395.842 C 217.150 391.477, 207.864 387.027, 205.864 385.953 C 203.864 384.879, 201.827 384, 201.336 384 C 200.846 384, 198.188 386.587, 195.430 389.750 M 621.500 392.989 C 603.148 397.087, 592.376 402.588, 580.630 413.865 C 572.957 421.231, 566.847 430.679, 562.313 442.191 C 558.704 451.351, 558.644 451.732, 558.580 466 C 558.519 479.430, 558.721 481.076, 561.307 488.312 C 565.277 499.420, 565.979 500.906, 569.888 506.500 C 581.976 523.796, 597.892 535.018, 616.256 539.193 C 629.170 542.129, 647.285 542.096, 658.979 539.115 C 674.679 535.114, 689.287 525.726, 699.518 513.064 C 704.911 506.389, 711.469 493.906, 712.628 488.108 L 713.250 485 693.657 485 L 674.063 485 669.844 490.750 C 660.240 503.839, 650.904 509, 636.834 509 C 614.490 509, 597.136 490.951, 596.918 467.485 C 596.763 450.812, 603.774 437.538, 616.850 429.749 C 634.875 419.012, 654.763 423.456, 668.388 441.265 L 674.305 449 693.653 449 C 716.043 449, 715.111 449.580, 710.324 438.625 C 704.129 424.447, 692.111 410.506, 679.770 403.183 C 667.826 396.094, 648.956 390.895, 635.922 391.102 C 632.390 391.158, 625.900 392.007, 621.500 392.989 M 791.710 392.585 C 773.710 396.166, 759.043 403.964, 747.415 416.132 C 737.480 426.528, 733.295 434.053, 729.413 448.500 C 726.073 460.933, 725.700 473.537, 728.407 482.500 C 729.404 485.800, 730.909 490.750, 731.751 493.500 C 733.548 499.367, 740.658 510.882, 745.849 516.334 C 755.522 526.492, 770.003 535.485, 781.500 538.471 C 814.717 547.098, 847.976 537.902, 868.416 514.439 C 874.280 507.707, 881.367 494.154, 883.547 485.500 C 886.003 475.752, 886.010 457.897, 883.562 448 C 879.208 430.404, 866.098 413.331, 849.011 403.007 C 832.761 393.188, 809.728 388.999, 791.710 392.585 M 1119 392.959 C 1107.531 395.366, 1099.896 398.232, 1091.516 403.277 C 1082.628 408.627, 1069.438 421.875, 1065.500 429.408 C 1063.850 432.564, 1061.932 436.199, 1061.238 437.485 C 1060.544 438.771, 1059.026 443.575, 1057.866 448.162 C 1049.072 482.921, 1065.481 517.502, 1098.515 533.827 C 1109.270 539.142, 1119.615 541.312, 1134.500 541.377 C 1158.685 541.481, 1177.427 533.791, 1193.082 517.339 C 1201.740 508.241, 1211.202 490.576, 1209.623 486.460 C 1209.132 485.181, 1206.176 484.997, 1189.786 485.228 L 1170.526 485.500 1167.377 490.314 C 1161.321 499.573, 1154.576 504.818, 1145.236 507.534 C 1133.691 510.890, 1119.249 508.217, 1110.176 501.045 C 1104.244 496.356, 1102.027 493.370, 1097.782 484.350 C 1094.770 477.950, 1094.556 476.778, 1094.529 466.500 C 1094.501 455.849, 1094.616 455.262, 1098.153 448 C 1106.102 431.684, 1121.038 422.781, 1137.832 424.349 C 1149.060 425.397, 1162.476 434.100, 1167.184 443.387 C 1168.331 445.649, 1169.771 447.831, 1170.384 448.235 C 1170.998 448.639, 1179.952 448.976, 1190.281 448.985 C 1206.925 448.998, 1209.136 448.810, 1209.705 447.327 C 1211.399 442.913, 1201.411 424.637, 1192.192 415.279 C 1180.821 403.739, 1167.293 396.662, 1149.500 392.946 C 1138.421 390.632, 1130.066 390.636, 1119 392.959 M 908.243 394.828 C 907.250 395.459, 907.040 410.575, 907.243 467.063 L 907.500 538.500 924.425 538.775 C 933.734 538.926, 941.749 538.651, 942.238 538.162 C 942.729 537.671, 943.084 518.685, 943.033 495.637 C 942.971 467.373, 943.276 454, 943.983 454 C 944.556 454, 946.676 456.587, 948.694 459.750 C 950.711 462.913, 955.768 470.708, 959.931 477.073 C 964.094 483.439, 972.675 496.644, 979 506.418 C 985.325 516.193, 992.759 527.410, 995.520 531.345 L 1000.541 538.500 1017.020 538.500 L 1033.500 538.500 1033.500 466.500 L 1033.500 394.500 1015.825 394.227 C 999.640 393.977, 998.103 394.104, 997.599 395.727 C 997.296 396.702, 997.437 416.175, 997.912 439 C 998.470 465.792, 998.431 480.854, 997.801 481.500 C 996.654 482.677, 996.075 481.947, 988.281 469.500 C 985.181 464.550, 980.700 457.462, 978.322 453.750 C 966.628 435.487, 964.555 432.244, 962.509 429 C 961.294 427.075, 957.681 421.450, 954.479 416.500 C 951.278 411.550, 947.062 405.025, 945.112 402 C 943.161 398.975, 940.902 395.938, 940.092 395.250 C 938.417 393.830, 910.400 393.459, 908.243 394.828 M 1231.460 395.250 C 1231.197 395.938, 1231.099 428.450, 1231.241 467.500 L 1231.500 538.500 1249.500 538.500 L 1267.500 538.500 1267.770 517.250 C 1268.069 493.667, 1268.450 492.558, 1273.685 500.003 C 1279.282 507.963, 1299.248 534.553, 1301.292 536.770 C 1303.354 539.006, 1303.690 539.035, 1323.860 538.770 C 1338.966 538.571, 1344.442 538.178, 1344.744 537.271 C 1344.969 536.595, 1342.964 533.670, 1340.288 530.771 C 1337.613 527.872, 1332.741 522.152, 1329.462 518.060 C 1326.183 513.968, 1320.008 506.543, 1315.739 501.560 C 1311.471 496.577, 1308.096 491.905, 1308.239 491.177 C 1308.383 490.449, 1310.846 489.061, 1313.713 488.093 C 1320.871 485.676, 1329.382 479.822, 1333.129 474.738 C 1334.847 472.407, 1337.647 467.575, 1339.350 464 C 1342.061 458.311, 1342.497 456.199, 1342.844 447.075 C 1343.071 441.091, 1342.733 434.383, 1342.049 431.329 C 1339.384 419.419, 1328.949 406.048, 1317.981 400.490 C 1308.747 395.811, 1292.736 394, 1260.608 394 C 1238.593 394, 1231.826 394.290, 1231.460 395.250 M 1364.291 395.739 C 1363.856 396.707, 1363.725 429.225, 1364 468 L 1364.500 538.500 1405.500 538.500 L 1446.500 538.500 1446.775 522.750 L 1447.051 507 1425.275 506.985 C 1413.299 506.976, 1402.922 506.603, 1402.216 506.154 C 1401.264 505.550, 1401.005 502.383, 1401.216 493.920 L 1401.500 482.500 1422.423 482.229 C 1435.798 482.056, 1443.824 481.561, 1444.673 480.857 C 1445.662 480.035, 1446 476.127, 1446 465.500 C 1446 454.873, 1445.662 450.965, 1444.673 450.143 C 1443.824 449.439, 1435.798 448.944, 1422.423 448.771 L 1401.500 448.500 1401.213 438.082 C 1401.003 430.434, 1401.269 427.437, 1402.213 426.810 C 1402.921 426.341, 1412.725 425.999, 1424 426.050 C 1435.275 426.102, 1445.074 426.112, 1445.775 426.072 C 1446.765 426.016, 1446.989 422.466, 1446.775 410.250 L 1446.500 394.500 1405.791 394.239 C 1367.743 393.995, 1365.031 394.093, 1364.291 395.739 M 1460.667 394.667 C 1460.300 395.033, 1460 402.233, 1460 410.667 L 1460 426 1462.750 426.058 C 1464.263 426.091, 1470.374 426.066, 1476.331 426.003 C 1483.331 425.929, 1487.663 426.306, 1488.581 427.067 C 1489.775 428.058, 1490 437.016, 1490 483.622 L 1490 539 1507.800 539 C 1520.311 539, 1525.957 538.643, 1526.800 537.800 C 1527.704 536.896, 1528 523.113, 1528 481.908 L 1528 427.217 1530.716 426.535 C 1532.210 426.160, 1538.488 425.983, 1544.669 426.140 C 1550.849 426.298, 1556.194 426.139, 1556.546 425.787 C 1557.300 425.033, 1557.166 396.077, 1556.403 394.842 C 1555.792 393.855, 1461.651 393.682, 1460.667 394.667 M 266.106 421.258 C 264.789 423.591, 262.280 427.750, 260.531 430.500 C 251.363 444.912, 246.841 453.525, 247.717 454.913 C 248.693 456.460, 262.825 460.644, 280.354 464.576 C 286.324 465.916, 291.665 467.293, 292.222 467.637 C 294.007 468.740, 300.197 469.862, 301.576 469.332 C 302.310 469.051, 303.647 466.273, 304.548 463.160 C 305.449 460.047, 307.973 453.292, 310.157 448.150 C 313.919 439.294, 314.039 438.701, 312.432 436.925 C 311.500 435.894, 309.783 434.764, 308.618 434.412 C 306.204 433.685, 286.316 424.319, 277.860 419.929 C 270.325 416.016, 268.978 416.168, 266.106 421.258 M 796.500 425.438 C 785.221 428.298, 776.031 435.774, 769.995 447 C 766.504 453.492, 766.500 453.517, 766.545 466.500 C 766.583 477.716, 766.886 480.118, 768.752 484 C 776.498 500.112, 790.166 509.018, 807.108 508.989 C 826.403 508.957, 839.243 498.359, 846.385 476.572 C 848.489 470.151, 848.425 464.979, 846.140 456.990 C 843.453 447.594, 839.837 441.139, 834.332 435.910 C 823.226 425.361, 810.594 421.864, 796.500 425.438 M 89.686 436.250 C 76.172 456.894, 59 487.671, 59 491.250 C 59 492.976, 67.747 494.403, 91.800 496.602 C 104.590 497.772, 110.763 497.970, 112.300 497.261 C 113.614 496.656, 116.842 491.868, 120.315 485.374 C 128.378 470.295, 127.808 471.242, 142.360 448.802 C 145.462 444.019, 148 439.620, 148 439.028 C 148 437.597, 144.513 436.324, 132.500 433.366 C 120.443 430.398, 113.316 428.555, 106.032 426.525 C 103.025 425.686, 99.774 425, 98.808 425 C 97.673 425, 94.444 428.982, 89.686 436.250 M 1269.226 426.861 C 1268.254 427.461, 1268.020 432.208, 1268.228 447.073 L 1268.500 466.500 1280.033 466.381 C 1295.760 466.218, 1300.427 463.893, 1304.923 453.982 C 1307.493 448.316, 1307.506 445.399, 1304.988 439.706 C 1302.402 433.861, 1298.403 430.550, 1291.505 428.544 C 1285.279 426.735, 1271.156 425.667, 1269.226 426.861 M 0.470 497 C 0.470 531.375, 0.596 545.438, 0.749 528.250 C 0.903 511.062, 0.903 482.937, 0.749 465.750 C 0.596 448.563, 0.470 462.625, 0.470 497 M 152.677 445.250 C 147.418 452.587, 141.453 461.904, 134.904 473.010 C 119.407 499.288, 119.465 499.078, 127.500 500.164 C 136.241 501.345, 159.942 503.895, 177 505.488 C 186.075 506.336, 196.781 507.473, 200.791 508.015 C 204.801 508.557, 208.733 509, 209.530 509 C 210.418 509, 215.159 500.590, 221.793 487.250 C 227.741 475.288, 233.258 464.460, 234.054 463.189 C 235.359 461.104, 235.311 460.738, 233.559 459.439 C 232.491 458.648, 230.691 457.997, 229.559 457.994 C 228.426 457.990, 222.325 456.604, 216 454.914 C 209.675 453.223, 198.425 450.301, 191 448.419 C 183.575 446.537, 173.450 443.881, 168.500 442.516 C 163.550 441.151, 158.811 440.026, 157.970 440.017 C 157.128 440.008, 154.746 442.363, 152.677 445.250 M 242.274 462.804 C 241.600 463.235, 236.039 473.628, 229.916 485.900 C 220.626 504.518, 219.008 508.424, 220.141 509.494 C 220.980 510.286, 228.203 511.398, 239 512.397 C 264.176 514.726, 283.466 516.858, 285.123 517.494 C 287.689 518.478, 289.776 515.629, 291.344 509 C 292.190 505.425, 294.283 496.926, 295.995 490.113 C 297.708 483.300, 298.912 477.214, 298.672 476.587 C 298.432 475.961, 295.370 474.868, 291.867 474.159 C 288.365 473.449, 278.975 471.105, 271 468.949 C 263.025 466.793, 254.250 464.603, 251.500 464.084 C 248.750 463.564, 245.825 462.887, 245 462.580 C 244.175 462.272, 242.948 462.374, 242.274 462.804" stroke="none" fill="#f6f5e3" fill-rule="evenodd"/><path d="M 309 13.531 C 309 24.958, 308.753 27.157, 307.415 27.671 C 305.806 28.288, 296.962 26.731, 291.500 24.869 C 289.850 24.306, 284.675 22.950, 280 21.854 C 275.325 20.759, 267.900 18.938, 263.500 17.807 C 259.100 16.677, 250.775 14.686, 245 13.384 C 239.225 12.081, 230.675 9.921, 226 8.584 C 212.441 4.705, 211.093 4.610, 203.942 7.027 C 200.399 8.224, 191.875 10.691, 185 12.509 C 155.929 20.196, 141.631 24.110, 140.840 24.599 C 140.376 24.885, 133.135 26.939, 124.749 29.163 C 105.405 34.293, 90.032 38.482, 83 40.539 C 79.975 41.424, 72.775 43.424, 67 44.984 C 61.225 46.544, 54.025 48.552, 51 49.446 C 47.975 50.341, 41.225 52.147, 36 53.461 C 30.775 54.774, 22.900 56.963, 18.500 58.326 C 14.100 59.688, 8.138 61.382, 5.250 62.091 L 0 63.378 0 155.091 L 0 246.804 3.149 247.902 C 4.881 248.506, 7.546 249, 9.071 249 C 13.558 249, 34.915 252.875, 42.500 255.065 C 46.350 256.177, 52.425 257.740, 56 258.537 C 68.104 261.239, 111.534 276.173, 120.500 280.716 C 122.700 281.831, 125.625 283.092, 127 283.518 C 135.988 286.302, 180.026 308.513, 180.710 310.607 C 180.909 311.216, 177.801 314.816, 173.804 318.607 C 151.577 339.692, 126.073 367.346, 112.047 385.572 C 105.132 394.558, 95.216 407.736, 93.937 409.639 C 93.147 410.815, 88.859 417.115, 84.409 423.639 C 64.409 452.957, 46.518 486.741, 34.703 517.500 C 28.802 532.863, 24.776 545.829, 25.529 547.047 C 25.853 547.571, 28.106 548, 30.536 548 C 35.707 548, 37.176 546.366, 39.079 538.500 C 39.744 535.750, 40.693 532.981, 41.186 532.347 C 41.680 531.713, 42.482 529.913, 42.969 528.347 C 46.261 517.754, 53.314 501.814, 55.518 499.985 C 57.040 498.722, 63.580 499.249, 87.780 502.583 C 93.434 503.363, 100.311 504, 103.062 504 C 108.254 504, 110.307 505.698, 108.215 508.263 C 107.660 508.943, 104.234 516.527, 100.603 525.116 C 93.714 541.410, 92.507 547, 95.878 547 C 98.485 547, 99.302 545.762, 103.464 535.500 C 107.216 526.251, 110.962 517.827, 114.532 510.609 L 116.564 506.500 126.032 506.790 C 131.240 506.949, 140.225 507.715, 146 508.492 C 151.775 509.269, 163.250 510.638, 171.500 511.534 C 207.226 515.413, 206.522 515.278, 206.321 518.229 C 206.223 519.675, 204.038 525.277, 201.464 530.679 C 196.161 541.812, 195.344 546.335, 198.555 546.794 C 201.316 547.189, 203.107 544.833, 206.382 536.500 C 207.895 532.650, 210.566 526.575, 212.317 523 L 215.500 516.500 220 516.793 C 222.475 516.955, 229.900 517.735, 236.500 518.528 C 243.100 519.321, 256.362 520.701, 265.971 521.594 C 275.579 522.487, 284.524 523.629, 285.848 524.132 C 287.989 524.946, 288.180 525.458, 287.583 528.774 C 283.969 548.826, 284.013 548.920, 296.204 547.094 C 302.432 546.160, 320.830 545.968, 370 546.321 C 406.025 546.580, 438.355 546.951, 441.846 547.146 C 445.336 547.341, 448.605 547.244, 449.111 546.932 C 450.235 546.237, 450.267 294.073, 449.144 289 C 448.437 285.809, 448.085 285.523, 445.162 285.757 C 442.528 285.968, 441.783 285.558, 440.986 283.463 C 440.452 282.060, 438.167 276.994, 435.906 272.206 C 428.927 257.422, 427.867 254.272, 429.373 252.791 C 430.095 252.081, 434.469 249.700, 439.093 247.500 C 443.717 245.300, 447.863 243.050, 448.307 242.500 C 450.038 240.357, 448.182 226.549, 445.015 218 C 441.325 208.043, 437.986 197.599, 437.292 193.844 C 436.860 191.508, 437.508 190.719, 442.650 187.316 C 447.148 184.340, 448.500 182.877, 448.500 180.986 C 448.500 177.468, 446.105 177.456, 440.952 180.947 C 434.571 185.270, 433.428 184.984, 431.571 178.596 C 429.409 171.161, 429.540 170.416, 433.250 169.016 C 441.284 165.984, 446.597 163.692, 447.750 162.763 C 449.714 161.179, 449.554 65.704, 447.584 64.070 C 446.039 62.788, 423.408 56.779, 402.500 52.099 C 394.926 50.404, 374.882 45.045, 373.942 44.464 C 373.399 44.129, 373 34.584, 373 21.941 L 373 0 341 0 L 309 0 309 13.531 M 580.681 84.653 C 580.306 85.027, 580 144.835, 580 217.560 C 580 337.210, 580.150 349.844, 581.582 350.393 C 583.949 351.301, 641.302 351.095, 642.754 350.173 C 643.750 349.541, 643.955 322.229, 643.754 216.939 L 643.500 84.500 612.431 84.236 C 595.343 84.091, 581.055 84.278, 580.681 84.653 M 759.720 84.613 C 759.324 85.009, 759 144.603, 759 217.044 C 759 327.316, 759.223 348.940, 760.369 349.892 C 761.345 350.701, 771.058 350.952, 794.119 350.764 L 826.500 350.500 827 309 L 827.500 267.500 856.500 266.849 C 874.816 266.438, 888.447 265.661, 893.500 264.738 C 935.586 257.054, 962.385 229.316, 967.954 187.678 C 972.133 156.427, 962.241 126.380, 941.378 106.958 C 933.876 99.974, 928.182 96.460, 917.183 92.026 C 899.761 85.001, 896.828 84.757, 824.470 84.299 C 789.253 84.076, 760.116 84.217, 759.720 84.613 M 1063.155 85.313 C 1062.541 86.053, 1060.873 89.756, 1059.448 93.543 C 1058.022 97.330, 1055.808 102.694, 1054.526 105.464 C 1051.520 111.963, 1042 134.816, 1042 135.534 C 1042 135.836, 1040.626 139.102, 1038.947 142.792 C 1033.478 154.809, 1027.171 169.844, 1023.437 179.763 C 1022.075 183.382, 1020.597 186.828, 1020.153 187.421 C 1019.708 188.015, 1018.534 190.750, 1017.544 193.500 C 1016.554 196.250, 1014.408 201.425, 1012.776 205 C 1011.144 208.575, 1008.779 214.200, 1007.522 217.500 C 1004.069 226.559, 997.131 243.278, 996.033 245.186 C 995.499 246.114, 993.234 251.485, 991 257.122 C 988.765 262.759, 986.561 267.850, 986.101 268.435 C 985.641 269.021, 984.468 271.975, 983.495 275 C 982.522 278.025, 980.817 282.300, 979.706 284.500 C 977.712 288.449, 974.590 295.953, 966.813 315.497 C 964.625 320.996, 962.502 325.946, 962.095 326.497 C 960.277 328.960, 952.906 349.039, 953.479 349.967 C 953.900 350.647, 966.503 351, 990.385 351 L 1026.651 351 1028.621 348.750 C 1029.704 347.512, 1031.182 344.700, 1031.905 342.500 C 1032.629 340.300, 1035.131 333.550, 1037.466 327.500 C 1039.801 321.450, 1041.989 315.708, 1042.328 314.740 C 1042.907 313.089, 1045.927 312.997, 1091.600 313.240 L 1140.256 313.500 1144.165 324.500 C 1146.315 330.550, 1149.004 338.425, 1150.141 342 C 1151.279 345.575, 1152.667 349.063, 1153.227 349.750 C 1154.578 351.409, 1227.023 351.577, 1228.675 349.925 C 1229.719 348.881, 1226.857 340.396, 1221.281 328 C 1220.167 325.525, 1218.330 321.025, 1217.199 318 C 1216.067 314.975, 1213.984 310.140, 1212.570 307.255 C 1211.157 304.370, 1210 301.404, 1210 300.665 C 1210 299.925, 1208.730 296.660, 1207.177 293.410 C 1202.873 284.400, 1201 280.028, 1201 278.988 C 1201 278.469, 1199.475 274.771, 1197.611 270.772 C 1195.746 266.772, 1193.493 261.336, 1192.602 258.690 C 1191.712 256.045, 1189.687 251.095, 1188.103 247.690 C 1186.519 244.286, 1184.469 239.261, 1183.547 236.525 C 1182.625 233.788, 1181.510 231.088, 1181.070 230.525 C 1180.296 229.534, 1176.063 219.318, 1167.802 198.503 C 1165.620 193.004, 1163.495 188.054, 1163.080 187.503 C 1162.665 186.951, 1161.277 183.575, 1159.994 180 C 1158.712 176.425, 1156.586 171.250, 1155.271 168.500 C 1153.955 165.750, 1151.947 160.800, 1150.807 157.500 C 1149.667 154.200, 1148.364 151.028, 1147.911 150.450 C 1147.458 149.873, 1145.468 145.148, 1143.489 139.950 C 1141.510 134.753, 1138.566 127.686, 1136.946 124.247 C 1135.325 120.808, 1134 117.556, 1134 117.019 C 1134 116.483, 1132.484 112.771, 1130.631 108.772 C 1128.778 104.772, 1126.506 99.250, 1125.582 96.500 C 1124.657 93.750, 1123.132 89.925, 1122.192 88 L 1120.482 84.500 1092.376 84.235 C 1069.813 84.022, 1064.050 84.234, 1063.155 85.313 M 1210.473 85.044 C 1210.118 85.618, 1210.321 86.681, 1210.923 87.407 C 1211.971 88.670, 1221.857 116.381, 1226.118 130 C 1227.236 133.575, 1229.258 139.316, 1230.611 142.758 C 1231.963 146.200, 1233.998 152.050, 1235.131 155.758 C 1236.264 159.466, 1237.814 163.850, 1238.575 165.500 C 1239.336 167.150, 1241.067 171.875, 1242.421 176 C 1245.078 184.093, 1250.887 200.944, 1258.966 224 C 1261.761 231.975, 1265.804 243.815, 1267.951 250.310 C 1270.098 256.806, 1272.259 262.656, 1272.752 263.310 C 1273.245 263.965, 1274.454 267.425, 1275.439 271 C 1276.423 274.575, 1278.145 279.750, 1279.265 282.500 C 1281.300 287.499, 1284.338 296.378, 1291.412 318 C 1293.481 324.325, 1295.620 330.338, 1296.165 331.361 C 1296.710 332.385, 1298.274 336.648, 1299.641 340.835 C 1301.007 345.021, 1302.602 349.021, 1303.185 349.723 C 1304.008 350.715, 1312.081 350.997, 1339.372 350.985 C 1358.693 350.976, 1375.032 350.631, 1375.683 350.217 C 1376.334 349.803, 1377.616 347.223, 1378.532 344.482 C 1379.449 341.742, 1380.812 338.150, 1381.562 336.500 C 1382.311 334.850, 1384.029 330.125, 1385.378 326 C 1386.728 321.875, 1390.138 311.975, 1392.956 304 C 1395.774 296.025, 1399.842 284.325, 1401.996 278 C 1404.150 271.675, 1408.010 260.650, 1410.574 253.500 C 1413.139 246.350, 1416.337 237.125, 1417.682 233 C 1419.026 228.875, 1420.824 223.700, 1421.676 221.500 C 1424.939 213.076, 1425.949 210.269, 1428.332 203 C 1434.882 183.024, 1438.235 173.239, 1439.471 170.500 C 1441.008 167.091, 1442.820 161.907, 1444.014 157.500 C 1444.461 155.850, 1445.803 152.025, 1446.996 149 C 1448.188 145.975, 1450.449 139.675, 1452.019 135 C 1459.103 113.907, 1463.313 101.931, 1466.160 94.775 C 1467.850 90.526, 1468.968 86.358, 1468.643 85.513 C 1468.125 84.162, 1463.660 84.007, 1431.839 84.237 L 1395.625 84.500 1393.399 93 C 1392.174 97.675, 1390.032 104.875, 1388.640 109 C 1387.247 113.125, 1385.198 119.875, 1384.087 124 C 1382.975 128.125, 1381.169 134.103, 1380.073 137.285 C 1378.976 140.467, 1377.133 146.767, 1375.976 151.285 C 1374.820 155.803, 1373.520 160.175, 1373.089 161 C 1372.657 161.825, 1371.284 166.100, 1370.039 170.500 C 1368.793 174.900, 1366.687 181.875, 1365.358 186 C 1364.029 190.125, 1361.793 197.765, 1360.390 202.977 C 1358.986 208.190, 1357.591 212.853, 1357.290 213.340 C 1356.989 213.827, 1354.817 220.812, 1352.463 228.863 C 1350.109 236.913, 1347.039 247.325, 1345.641 252 C 1344.244 256.675, 1342.610 262.413, 1342.011 264.750 C 1340.426 270.939, 1338.574 270.087, 1336.577 262.250 C 1335.631 258.538, 1333.333 250.550, 1331.471 244.500 C 1329.608 238.450, 1327.352 230.800, 1326.457 227.500 C 1325.561 224.200, 1323.808 218.350, 1322.561 214.500 C 1321.314 210.650, 1319.485 204.575, 1318.496 201 C 1317.507 197.425, 1315.238 189.775, 1313.454 184 C 1311.670 178.225, 1309.214 170.125, 1307.995 166 C 1305.045 156.011, 1297.877 132.001, 1292.320 113.500 C 1289.842 105.250, 1286.987 95.693, 1285.974 92.263 C 1284.962 88.832, 1283.852 85.570, 1283.508 85.013 C 1282.631 83.594, 1211.350 83.625, 1210.473 85.044 M 1501.667 84.667 C 1501.300 85.033, 1501 144.568, 1501 216.967 C 1501 318.015, 1501.279 348.879, 1502.200 349.800 C 1503.112 350.712, 1521.283 350.996, 1577.950 350.985 C 1618.953 350.976, 1653.075 350.604, 1653.778 350.158 C 1655.703 348.937, 1655.773 292.112, 1653.851 290.871 C 1653.108 290.391, 1634.165 290.026, 1611.755 290.061 C 1589.345 290.095, 1570.557 289.844, 1570.005 289.503 C 1568.359 288.486, 1568.675 246.514, 1570.339 245.134 C 1571.260 244.370, 1584.287 243.941, 1612.089 243.761 L 1652.500 243.500 1652.500 214.500 L 1652.500 185.500 1612.089 185.239 C 1584.287 185.059, 1571.260 184.630, 1570.339 183.866 C 1568.517 182.354, 1568.390 146.010, 1570.200 144.200 C 1571.095 143.305, 1581.898 143, 1612.641 143 C 1640.308 143, 1654.095 142.655, 1654.529 141.952 C 1654.886 141.376, 1655.250 128.331, 1655.339 112.963 C 1655.468 90.503, 1655.239 84.921, 1654.168 84.511 C 1652.166 83.743, 1502.437 83.896, 1501.667 84.667 M 828.200 144.200 C 827.321 145.079, 827 153.311, 827 175 C 827 196.689, 827.321 204.921, 828.200 205.800 C 829.695 207.295, 861.268 207.428, 871.269 205.982 C 884.888 204.012, 896.461 196.204, 898.928 187.321 C 900.793 180.603, 900.277 165.499, 898.013 160.529 C 893.746 151.161, 883.315 145.544, 867.381 144.033 C 852.118 142.586, 829.719 142.681, 828.200 144.200 M 1090.313 171.250 C 1089.800 171.938, 1088.198 176.325, 1086.753 181 C 1079.754 203.635, 1075.836 216.191, 1073.494 223.500 C 1067.937 240.841, 1063.956 255.442, 1064.440 256.705 C 1064.850 257.772, 1070.292 257.980, 1092.225 257.766 C 1118.784 257.507, 1119.497 257.447, 1119.397 255.500 C 1119.269 253.015, 1115.057 238.003, 1111.681 228 C 1107.413 215.352, 1101.308 195.906, 1099.054 187.780 C 1097.876 183.533, 1096.260 178.808, 1095.462 177.280 C 1094.665 175.751, 1094.010 173.488, 1094.006 172.250 C 1093.999 169.815, 1091.822 169.226, 1090.313 171.250 M 411.761 178.065 C 401.511 182.572, 398.528 184.468, 398.199 186.688 C 397.834 189.145, 402.892 199.928, 405.036 201.263 C 406.189 201.981, 409.096 200.581, 416.706 195.642 C 422.281 192.025, 427.118 188.619, 427.455 188.073 C 427.792 187.528, 427.594 186.276, 427.015 185.291 C 426.436 184.306, 425.366 181.700, 424.637 179.500 C 422.938 174.373, 420.720 174.126, 411.761 178.065 M 375.500 195.077 C 368.900 198.379, 362.900 201.678, 362.167 202.409 C 361.056 203.516, 361.287 204.637, 363.551 209.119 C 367.371 216.682, 371.860 223, 373.414 223 C 374.139 223, 378.055 220.736, 382.116 217.970 C 386.177 215.203, 391.413 211.719, 393.750 210.227 C 396.087 208.735, 398 206.734, 398 205.779 C 398 204.825, 396.415 200.659, 394.478 196.522 C 392.060 191.357, 390.415 189.011, 389.228 189.036 C 388.278 189.056, 382.100 191.774, 375.500 195.077 M 419.558 201.485 C 406.585 209.422, 407.004 208.695, 410.758 216.736 C 412.495 220.456, 416.169 228.450, 418.923 234.500 C 421.678 240.550, 424.609 245.643, 425.438 245.818 C 427.194 246.189, 441.475 239.337, 443.148 237.322 C 444.005 236.289, 443.900 235.042, 442.720 232.227 C 441.860 230.177, 439.559 223.550, 437.608 217.500 C 432.501 201.671, 430.591 196.696, 429.480 196.333 C 428.941 196.157, 424.476 198.475, 419.558 201.485 M 345.500 210.355 C 342.200 212.175, 336.054 215.556, 331.843 217.869 C 327.631 220.181, 323.961 222.658, 323.687 223.373 C 323.413 224.088, 324.608 226.485, 326.344 228.699 C 328.080 230.913, 331.635 235.712, 334.245 239.362 C 337.124 243.391, 339.707 246, 340.816 246 C 342.387 246, 353.610 238.388, 363.500 230.614 L 366.500 228.256 363.720 222.878 C 358.758 213.277, 354.533 207.035, 353 207.040 C 352.175 207.043, 348.800 208.535, 345.500 210.355 M 388.500 221.538 C 382.450 225.633, 377.369 229.587, 377.209 230.324 C 376.931 231.604, 378.203 234.008, 388.149 251 C 394.469 261.797, 396.064 264, 397.565 264 C 398.299 264, 401.060 262.585, 403.700 260.855 C 406.340 259.126, 410.626 256.314, 413.224 254.605 C 415.823 252.897, 417.960 250.977, 417.974 250.339 C 418.007 248.842, 404.856 218.676, 402.677 215.250 C 401.353 213.168, 399.935 213.797, 388.500 221.538 M 310.948 229.807 C 308.501 231.371, 302.563 235.084, 297.750 238.060 C 292.938 241.035, 289 244.065, 289 244.792 C 289 246.838, 308.077 268.458, 310.206 268.826 C 312.040 269.142, 328.376 257.601, 332.346 253.184 C 334.156 251.170, 334.120 251.024, 330.543 245.815 C 323.546 235.627, 317.469 227.656, 316.436 227.312 C 315.864 227.121, 313.394 228.244, 310.948 229.807 M 357 243.573 C 350.675 248.280, 345.352 252.546, 345.171 253.053 C 344.862 253.917, 367.431 285.530, 369.087 286.554 C 369.509 286.815, 372.699 284.635, 376.177 281.711 C 379.655 278.787, 384.188 275.128, 386.250 273.579 C 388.403 271.962, 390 269.908, 390 268.755 C 390 267.651, 387.798 263.092, 385.107 258.624 C 382.416 254.156, 378.204 247.125, 375.748 243 C 373.292 238.875, 370.657 235.391, 369.892 235.257 C 369.126 235.123, 363.325 238.865, 357 243.573 M 276.384 251.769 C 261.996 261.316, 247 272.189, 247 273.076 C 247 274.206, 273.824 298.422, 275.504 298.808 C 276.240 298.978, 280.591 295.818, 285.171 291.786 C 289.752 287.754, 295.863 282.510, 298.750 280.134 C 301.637 277.758, 304 275.154, 304 274.348 C 304 272.128, 283.145 248.966, 281.194 249.019 C 280.812 249.029, 278.648 250.267, 276.384 251.769 M 331.143 262.750 C 327.849 265.363, 323.111 269.075, 320.615 271 C 318.118 272.925, 316.059 275.077, 316.038 275.782 C 315.995 277.231, 343.962 309, 345.281 309 C 346.893 309, 361.833 294.500, 362.520 292.270 C 363.054 290.535, 362.002 288.425, 357.782 282.770 C 354.798 278.771, 349.728 271.900, 346.515 267.500 C 340.889 259.795, 339.287 258.048, 337.816 258.015 C 337.440 258.007, 334.437 260.137, 331.143 262.750 M 410.500 264.025 C 405.550 267.278, 401.365 270.575, 401.200 271.351 C 401.034 272.127, 401.934 274.362, 403.200 276.316 C 404.465 278.271, 408.359 284.849, 411.854 290.935 C 415.349 297.021, 418.780 302, 419.479 302 C 421.206 302, 436 291.119, 436 289.849 C 436 286.638, 422.250 257.988, 420.740 258.055 C 420.058 258.085, 415.450 260.771, 410.500 264.025 M 0 351.921 C 0 397.614, 0.202 435, 0.449 435 C 0.695 435, 3.110 431.707, 5.814 427.682 C 8.517 423.657, 13.603 416.480, 17.115 411.734 C 20.627 406.988, 27.088 398.243, 31.472 392.302 C 52.075 364.387, 80.018 332.496, 96.750 317.804 C 102.565 312.698, 103.069 311.462, 99.750 310.446 C 98.513 310.067, 93.675 307.954, 89 305.752 C 67.008 295.391, 69.915 296.673, 40.500 284.362 C 33.350 281.369, 23.675 277.549, 19 275.873 C 14.325 274.198, 9.593 272.250, 8.485 271.544 C 7.377 270.839, 5.015 269.943, 3.235 269.552 L 0 268.841 0 351.921 M 383.616 284.056 C 378.327 288.486, 374 292.558, 374 293.104 C 374 293.650, 377.286 298.462, 381.303 303.798 C 385.319 309.134, 389.617 315.164, 390.853 317.198 C 394.565 323.310, 396.039 323.078, 405.032 314.971 C 409.414 311.021, 413 307.131, 413 306.327 C 413 305.524, 411.926 303.434, 410.614 301.683 C 409.302 299.932, 407.268 296.587, 406.093 294.249 C 402.978 288.046, 395.040 276, 394.068 276 C 393.608 276, 388.905 279.625, 383.616 284.056 M 233.882 282.293 C 219.569 293.011, 205.003 305.429, 205.031 306.889 C 205.067 308.695, 204.842 308.519, 221.859 320.094 C 238.023 331.088, 239.399 331.988, 240.047 331.995 C 240.582 332, 252.373 321.243, 264.449 309.733 L 270.500 303.965 266.500 300.340 C 264.300 298.346, 257.923 292.504, 252.329 287.357 C 246.734 282.211, 241.559 278.019, 240.829 278.043 C 240.098 278.067, 236.972 279.980, 233.882 282.293 M 294.808 291.786 C 287.827 297.679, 282.090 303.262, 282.058 304.193 C 282.026 305.125, 282.900 306.517, 283.999 307.287 C 285.098 308.057, 291.052 313.370, 297.229 319.093 C 315.932 336.424, 317.686 338, 318.268 338 C 318.577 338, 323.610 332.816, 329.453 326.481 C 336.768 318.550, 339.832 314.540, 339.289 313.608 C 336.917 309.537, 310.493 281.006, 309.123 281.036 C 308.230 281.057, 301.789 285.894, 294.808 291.786 M 358.360 306.195 C 353.742 310.703, 350.084 314.713, 350.232 315.107 C 350.829 316.701, 374.265 343, 375.089 343 C 376.037 343, 389.271 329.456, 389.835 327.909 C 390.281 326.686, 369.153 298, 367.806 298 C 367.228 298, 362.977 301.688, 358.360 306.195 M 269.261 314.161 C 255.819 326.203, 246.888 335.265, 247.328 336.414 C 247.588 337.090, 253.358 341.409, 260.150 346.011 C 266.943 350.612, 276.988 357.443, 282.473 361.189 C 287.959 364.935, 292.954 368, 293.573 368 C 294.193 368, 298.089 363.599, 302.232 358.221 C 306.374 352.842, 310.491 347.837, 311.382 347.098 C 313.845 345.054, 313.335 342.670, 309.742 339.434 C 307.949 337.820, 299.665 330.313, 291.331 322.750 C 282.998 315.188, 275.919 309, 275.600 309 C 275.282 309, 272.429 311.322, 269.261 314.161 M 185.365 323.375 C 165.091 342.734, 155 352.905, 155 353.979 C 155 354.568, 156.166 355.493, 157.590 356.034 C 160.020 356.958, 170.898 362.092, 189.537 371.111 C 193.958 373.250, 198.066 375, 198.667 375 C 199.268 375, 201.346 373.087, 203.285 370.750 C 205.224 368.413, 213.126 359.975, 220.844 352 C 233.935 338.476, 234.765 337.390, 233.189 335.869 C 229.586 332.390, 199.809 313, 198.069 313 C 197.058 313, 191.341 317.669, 185.365 323.375 M 335.344 329.698 C 331.030 334.482, 326.698 339.221, 325.718 340.230 C 323.483 342.531, 323.984 343.386, 331.500 350.103 C 334.800 353.053, 340.808 358.511, 344.851 362.233 C 352.329 369.116, 354.274 370.082, 355.700 367.619 C 356.727 365.845, 362.521 358.672, 366.940 353.705 C 370.048 350.211, 370.251 349.628, 369.044 347.669 C 365.967 342.673, 346.366 321.125, 344.844 321.065 C 343.933 321.029, 339.658 324.914, 335.344 329.698 M 226.508 355.754 C 219.362 363.314, 211.784 371.208, 209.668 373.295 C 207.552 375.383, 206.038 377.657, 206.304 378.350 C 206.570 379.043, 209.873 380.895, 213.644 382.466 C 217.415 384.036, 221.175 385.854, 222 386.506 C 222.825 387.157, 225.300 388.392, 227.500 389.250 C 229.700 390.108, 239.098 394.478, 248.385 398.960 C 257.672 403.443, 265.822 406.899, 266.496 406.640 C 267.170 406.381, 269.499 403.544, 271.671 400.335 C 273.844 397.126, 277.143 392.250, 279.003 389.500 C 280.863 386.750, 283.959 382.549, 285.883 380.164 C 288.647 376.738, 289.161 375.479, 288.333 374.164 C 287.263 372.468, 280.459 367.613, 257.727 352.324 C 250.701 347.599, 244.712 343.343, 244.418 342.867 C 242.623 339.962, 238.905 342.637, 226.508 355.754 M 312.663 355.750 C 298.692 372.676, 298.999 371.991, 303.745 375.647 C 305.783 377.216, 310.212 380.300, 313.587 382.500 C 325.904 390.527, 328.554 392.341, 331.327 394.648 C 332.881 395.942, 334.472 397, 334.861 397 C 335.251 397, 338.640 392.267, 342.393 386.483 C 348.357 377.291, 349.046 375.757, 347.858 374.308 C 344.987 370.802, 320.443 349, 319.367 349 C 318.744 349, 315.727 352.038, 312.663 355.750 M 141 368.661 C 131.405 379.736, 122.576 390.401, 117.500 397.050 C 115.300 399.931, 112.340 403.686, 110.923 405.394 C 109.505 407.102, 106.928 410.591, 105.196 413.147 C 101.395 418.753, 101.654 419.073, 112 421.552 C 116.125 422.540, 122.650 424.196, 126.500 425.232 C 143.779 429.881, 152.272 431.831, 153.343 431.393 C 153.979 431.133, 156.368 428.350, 158.651 425.210 C 164.851 416.683, 179.149 398.591, 187.053 389.272 L 194.031 381.045 190.266 378.711 C 188.195 377.427, 184.925 375.768, 183 375.022 C 181.075 374.277, 176.575 372.217, 173 370.443 C 158.568 363.285, 151.315 360, 149.943 360.003 C 149.150 360.004, 145.125 363.901, 141 368.661 M 292.585 382.250 C 287.424 388.959, 283.365 394.659, 280.178 399.673 C 278.370 402.518, 276.240 405.386, 275.445 406.046 C 271.917 408.973, 273.729 410.930, 284.750 416.092 C 290.663 418.861, 300.058 423.404, 305.629 426.187 C 311.200 428.970, 316.308 431.064, 316.981 430.840 C 317.653 430.616, 319.170 428.197, 320.352 425.466 C 321.533 422.735, 324.445 417.011, 326.822 412.746 C 329.200 408.481, 331 404.253, 330.822 403.351 C 330.517 401.795, 297.913 379, 295.994 379 C 295.494 379, 293.960 380.462, 292.585 382.250 M 195.430 389.750 C 183.023 403.977, 162 430.976, 162 432.683 C 162 434.188, 168.598 436.363, 184 439.934 C 191.425 441.656, 198.546 443.506, 199.824 444.045 C 201.103 444.584, 207.178 446.131, 213.324 447.484 C 219.471 448.836, 227.425 450.852, 231 451.964 C 234.575 453.075, 237.786 453.988, 238.135 453.992 C 238.692 453.999, 240.716 450.769, 248.612 437.273 C 249.650 435.498, 253.118 429.714, 256.317 424.419 C 259.516 419.124, 261.902 414.188, 261.619 413.449 C 261.102 412.102, 257.967 410.530, 226.500 395.842 C 217.150 391.477, 207.864 387.027, 205.864 385.953 C 203.864 384.879, 201.827 384, 201.336 384 C 200.846 384, 198.188 386.587, 195.430 389.750 M 621.500 392.989 C 603.148 397.087, 592.376 402.588, 580.630 413.865 C 572.957 421.231, 566.847 430.679, 562.313 442.191 C 558.704 451.351, 558.644 451.732, 558.580 466 C 558.519 479.430, 558.721 481.076, 561.307 488.312 C 565.277 499.420, 565.979 500.906, 569.888 506.500 C 581.976 523.796, 597.892 535.018, 616.256 539.193 C 629.170 542.129, 647.285 542.096, 658.979 539.115 C 674.679 535.114, 689.287 525.726, 699.518 513.064 C 704.911 506.389, 711.469 493.906, 712.628 488.108 L 713.250 485 693.657 485 L 674.063 485 669.844 490.750 C 660.240 503.839, 650.904 509, 636.834 509 C 614.490 509, 597.136 490.951, 596.918 467.485 C 596.763 450.812, 603.774 437.538, 616.850 429.749 C 634.875 419.012, 654.763 423.456, 668.388 441.265 L 674.305 449 693.653 449 C 716.043 449, 715.111 449.580, 710.324 438.625 C 704.129 424.447, 692.111 410.506, 679.770 403.183 C 667.826 396.094, 648.956 390.895, 635.922 391.102 C 632.390 391.158, 625.900 392.007, 621.500 392.989 M 791.710 392.585 C 773.710 396.166, 759.043 403.964, 747.415 416.132 C 737.480 426.528, 733.295 434.053, 729.413 448.500 C 726.073 460.933, 725.700 473.537, 728.407 482.500 C 729.404 485.800, 730.909 490.750, 731.751 493.500 C 733.548 499.367, 740.658 510.882, 745.849 516.334 C 755.522 526.492, 770.003 535.485, 781.500 538.471 C 814.717 547.098, 847.976 537.902, 868.416 514.439 C 874.280 507.707, 881.367 494.154, 883.547 485.500 C 886.003 475.752, 886.010 457.897, 883.562 448 C 879.208 430.404, 866.098 413.331, 849.011 403.007 C 832.761 393.188, 809.728 388.999, 791.710 392.585 M 1119 392.959 C 1107.531 395.366, 1099.896 398.232, 1091.516 403.277 C 1082.628 408.627, 1069.438 421.875, 1065.500 429.408 C 1063.850 432.564, 1061.932 436.199, 1061.238 437.485 C 1060.544 438.771, 1059.026 443.575, 1057.866 448.162 C 1049.072 482.921, 1065.481 517.502, 1098.515 533.827 C 1109.270 539.142, 1119.615 541.312, 1134.500 541.377 C 1158.685 541.481, 1177.427 533.791, 1193.082 517.339 C 1201.740 508.241, 1211.202 490.576, 1209.623 486.460 C 1209.132 485.181, 1206.176 484.997, 1189.786 485.228 L 1170.526 485.500 1167.377 490.314 C 1161.321 499.573, 1154.576 504.818, 1145.236 507.534 C 1133.691 510.890, 1119.249 508.217, 1110.176 501.045 C 1104.244 496.356, 1102.027 493.370, 1097.782 484.350 C 1094.770 477.950, 1094.556 476.778, 1094.529 466.500 C 1094.501 455.849, 1094.616 455.262, 1098.153 448 C 1106.102 431.684, 1121.038 422.781, 1137.832 424.349 C 1149.060 425.397, 1162.476 434.100, 1167.184 443.387 C 1168.331 445.649, 1169.771 447.831, 1170.384 448.235 C 1170.998 448.639, 1179.952 448.976, 1190.281 448.985 C 1206.925 448.998, 1209.136 448.810, 1209.705 447.327 C 1211.399 442.913, 1201.411 424.637, 1192.192 415.279 C 1180.821 403.739, 1167.293 396.662, 1149.500 392.946 C 1138.421 390.632, 1130.066 390.636, 1119 392.959 M 908.243 394.828 C 907.250 395.459, 907.040 410.575, 907.243 467.063 L 907.500 538.500 924.425 538.775 C 933.734 538.926, 941.749 538.651, 942.238 538.162 C 942.729 537.671, 943.084 518.685, 943.033 495.637 C 942.971 467.373, 943.276 454, 943.983 454 C 944.556 454, 946.676 456.587, 948.694 459.750 C 950.711 462.913, 955.768 470.708, 959.931 477.073 C 964.094 483.439, 972.675 496.644, 979 506.418 C 985.325 516.193, 992.759 527.410, 995.520 531.345 L 1000.541 538.500 1017.020 538.500 L 1033.500 538.500 1033.500 466.500 L 1033.500 394.500 1015.825 394.227 C 999.640 393.977, 998.103 394.104, 997.599 395.727 C 997.296 396.702, 997.437 416.175, 997.912 439 C 998.470 465.792, 998.431 480.854, 997.801 481.500 C 996.654 482.677, 996.075 481.947, 988.281 469.500 C 985.181 464.550, 980.700 457.462, 978.322 453.750 C 966.628 435.487, 964.555 432.244, 962.509 429 C 961.294 427.075, 957.681 421.450, 954.479 416.500 C 951.278 411.550, 947.062 405.025, 945.112 402 C 943.161 398.975, 940.902 395.938, 940.092 395.250 C 938.417 393.830, 910.400 393.459, 908.243 394.828 M 1231.460 395.250 C 1231.197 395.938, 1231.099 428.450, 1231.241 467.500 L 1231.500 538.500 1249.500 538.500 L 1267.500 538.500 1267.770 517.250 C 1268.069 493.667, 1268.450 492.558, 1273.685 500.003 C 1279.282 507.963, 1299.248 534.553, 1301.292 536.770 C 1303.354 539.006, 1303.690 539.035, 1323.860 538.770 C 1338.966 538.571, 1344.442 538.178, 1344.744 537.271 C 1344.969 536.595, 1342.964 533.670, 1340.288 530.771 C 1337.613 527.872, 1332.741 522.152, 1329.462 518.060 C 1326.183 513.968, 1320.008 506.543, 1315.739 501.560 C 1311.471 496.577, 1308.096 491.905, 1308.239 491.177 C 1308.383 490.449, 1310.846 489.061, 1313.713 488.093 C 1320.871 485.676, 1329.382 479.822, 1333.129 474.738 C 1334.847 472.407, 1337.647 467.575, 1339.350 464 C 1342.061 458.311, 1342.497 456.199, 1342.844 447.075 C 1343.071 441.091, 1342.733 434.383, 1342.049 431.329 C 1339.384 419.419, 1328.949 406.048, 1317.981 400.490 C 1308.747 395.811, 1292.736 394, 1260.608 394 C 1238.593 394, 1231.826 394.290, 1231.460 395.250 M 1364.291 395.739 C 1363.856 396.707, 1363.725 429.225, 1364 468 L 1364.500 538.500 1405.500 538.500 L 1446.500 538.500 1446.775 522.750 L 1447.051 507 1425.275 506.985 C 1413.299 506.976, 1402.922 506.603, 1402.216 506.154 C 1401.264 505.550, 1401.005 502.383, 1401.216 493.920 L 1401.500 482.500 1422.423 482.229 C 1435.798 482.056, 1443.824 481.561, 1444.673 480.857 C 1445.662 480.035, 1446 476.127, 1446 465.500 C 1446 454.873, 1445.662 450.965, 1444.673 450.143 C 1443.824 449.439, 1435.798 448.944, 1422.423 448.771 L 1401.500 448.500 1401.213 438.082 C 1401.003 430.434, 1401.269 427.437, 1402.213 426.810 C 1402.921 426.341, 1412.725 425.999, 1424 426.050 C 1435.275 426.102, 1445.074 426.112, 1445.775 426.072 C 1446.765 426.016, 1446.989 422.466, 1446.775 410.250 L 1446.500 394.500 1405.791 394.239 C 1367.743 393.995, 1365.031 394.093, 1364.291 395.739 M 1460.667 394.667 C 1460.300 395.033, 1460 402.233, 1460 410.667 L 1460 426 1462.750 426.058 C 1464.263 426.091, 1470.374 426.066, 1476.331 426.003 C 1483.331 425.929, 1487.663 426.306, 1488.581 427.067 C 1489.775 428.058, 1490 437.016, 1490 483.622 L 1490 539 1507.800 539 C 1520.311 539, 1525.957 538.643, 1526.800 537.800 C 1527.704 536.896, 1528 523.113, 1528 481.908 L 1528 427.217 1530.716 426.535 C 1532.210 426.160, 1538.488 425.983, 1544.669 426.140 C 1550.849 426.298, 1556.194 426.139, 1556.546 425.787 C 1557.300 425.033, 1557.166 396.077, 1556.403 394.842 C 1555.792 393.855, 1461.651 393.682, 1460.667 394.667 M 1573.460 395.250 C 1573.197 395.938, 1573.099 428.450, 1573.241 467.500 L 1573.500 538.500 1615.250 538.761 L 1657 539.022 1657 523.011 L 1657 507 1635.250 506.985 C 1623.287 506.976, 1612.922 506.603, 1612.216 506.154 C 1611.264 505.550, 1611.005 502.383, 1611.216 493.920 L 1611.500 482.500 1631.923 482.229 C 1644.928 482.056, 1652.828 481.557, 1653.673 480.856 C 1654.667 480.032, 1655 476.019, 1655 464.878 C 1655 456.695, 1654.888 449.910, 1654.750 449.800 C 1654.612 449.690, 1644.825 449.353, 1633 449.050 L 1611.500 448.500 1611.213 438.082 C 1611.003 430.433, 1611.268 427.438, 1612.213 426.814 C 1612.921 426.347, 1616.875 426.004, 1621 426.053 C 1625.125 426.102, 1634.912 426.109, 1642.750 426.071 L 1657 426 1657 410 L 1657 394 1615.469 394 C 1583.165 394, 1573.831 394.278, 1573.460 395.250 M 266.106 421.258 C 264.789 423.591, 262.280 427.750, 260.531 430.500 C 251.363 444.912, 246.841 453.525, 247.717 454.913 C 248.693 456.460, 262.825 460.644, 280.354 464.576 C 286.324 465.916, 291.665 467.293, 292.222 467.637 C 294.007 468.740, 300.197 469.862, 301.576 469.332 C 302.310 469.051, 303.647 466.273, 304.548 463.160 C 305.449 460.047, 307.973 453.292, 310.157 448.150 C 313.919 439.294, 314.039 438.701, 312.432 436.925 C 311.500 435.894, 309.783 434.764, 308.618 434.412 C 306.204 433.685, 286.316 424.319, 277.860 419.929 C 270.325 416.016, 268.978 416.168, 266.106 421.258 M 796.500 425.438 C 785.221 428.298, 776.031 435.774, 769.995 447 C 766.504 453.492, 766.500 453.517, 766.545 466.500 C 766.583 477.716, 766.886 480.118, 768.752 484 C 776.498 500.112, 790.166 509.018, 807.108 508.989 C 826.403 508.957, 839.243 498.359, 846.385 476.572 C 848.489 470.151, 848.425 464.979, 846.140 456.990 C 843.453 447.594, 839.837 441.139, 834.332 435.910 C 823.226 425.361, 810.594 421.864, 796.500 425.438 M 89.686 436.250 C 76.172 456.894, 59 487.671, 59 491.250 C 59 492.976, 67.747 494.403, 91.800 496.602 C 104.590 497.772, 110.763 497.970, 112.300 497.261 C 113.614 496.656, 116.842 491.868, 120.315 485.374 C 128.378 470.295, 127.808 471.242, 142.360 448.802 C 145.462 444.019, 148 439.620, 148 439.028 C 148 437.597, 144.513 436.324, 132.500 433.366 C 120.443 430.398, 113.316 428.555, 106.032 426.525 C 103.025 425.686, 99.774 425, 98.808 425 C 97.673 425, 94.444 428.982, 89.686 436.250 M 1269.226 426.861 C 1268.254 427.461, 1268.020 432.208, 1268.228 447.073 L 1268.500 466.500 1280.033 466.381 C 1295.760 466.218, 1300.427 463.893, 1304.923 453.982 C 1307.493 448.316, 1307.506 445.399, 1304.988 439.706 C 1302.402 433.861, 1298.403 430.550, 1291.505 428.544 C 1285.279 426.735, 1271.156 425.667, 1269.226 426.861 M 152.677 445.250 C 147.418 452.587, 141.453 461.904, 134.904 473.010 C 119.407 499.288, 119.465 499.078, 127.500 500.164 C 136.241 501.345, 159.942 503.895, 177 505.488 C 186.075 506.336, 196.781 507.473, 200.791 508.015 C 204.801 508.557, 208.733 509, 209.530 509 C 210.418 509, 215.159 500.590, 221.793 487.250 C 227.741 475.288, 233.258 464.460, 234.054 463.189 C 235.359 461.104, 235.311 460.738, 233.559 459.439 C 232.491 458.648, 230.691 457.997, 229.559 457.994 C 228.426 457.990, 222.325 456.604, 216 454.914 C 209.675 453.223, 198.425 450.301, 191 448.419 C 183.575 446.537, 173.450 443.881, 168.500 442.516 C 163.550 441.151, 158.811 440.026, 157.970 440.017 C 157.128 440.008, 154.746 442.363, 152.677 445.250 M 242.274 462.804 C 241.600 463.235, 236.039 473.628, 229.916 485.900 C 220.626 504.518, 219.008 508.424, 220.141 509.494 C 220.980 510.286, 228.203 511.398, 239 512.397 C 264.176 514.726, 283.466 516.858, 285.123 517.494 C 287.689 518.478, 289.776 515.629, 291.344 509 C 292.190 505.425, 294.283 496.926, 295.995 490.113 C 297.708 483.300, 298.912 477.214, 298.672 476.587 C 298.432 475.961, 295.370 474.868, 291.867 474.159 C 288.365 473.449, 278.975 471.105, 271 468.949 C 263.025 466.793, 254.250 464.603, 251.500 464.084 C 248.750 463.564, 245.825 462.887, 245 462.580 C 244.175 462.272, 242.948 462.374, 242.274 462.804" stroke="none" fill="#25285f" fill-rule="evenodd"/></svg>