<svg xmlns="http://www.w3.org/2000/svg" width="254" height="118" viewBox="0 0 254 118" version="1.1"><path d="M 53 19 C 53 21.408, 53.070 21.404, 45.922 19.398 C 39.650 17.638, 40.640 17.476, 20.250 23.590 L 12 26.064 12 38.373 L 12 50.682 17.250 51.890 C 22.270 53.046, 30.277 56.196, 34.469 58.665 C 36.335 59.764, 36.201 60.078, 31.927 64.662 C 23.667 73.522, 15.393 87.892, 16.253 91.885 C 16.458 92.836, 17.126 91.957, 17.878 89.750 C 19.020 86.396, 19.516 86, 22.578 86 C 26.169 86, 26.677 86.866, 24.965 90.066 C 24.371 91.175, 24.325 92, 24.856 92 C 25.366 92, 26.066 90.875, 26.411 89.500 C 27.085 86.812, 28.473 86.522, 35.275 87.646 C 38.521 88.182, 38.967 88.565, 38.462 90.385 L 37.875 92.500 39.687 90.398 C 41.150 88.701, 42.320 88.384, 45.750 88.753 C 48.500 89.049, 50 89.702, 50 90.605 C 50 91.714, 52.257 92, 61 92 L 72 92 71.965 74.750 C 71.938 61.998, 71.569 56.849, 70.547 55.003 C 69.561 53.221, 69.468 52.141, 70.224 51.230 C 71.015 50.277, 70.913 50.096, 69.820 50.516 C 67.617 51.361, 65.644 46.541, 67.546 44.962 C 68.705 44, 69.169 44.225, 69.966 46.136 C 70.903 48.380, 70.941 48.348, 70.726 45.500 C 70.602 43.850, 70.050 42.154, 69.500 41.732 C 68.877 41.253, 69.115 40.600, 70.130 39.999 C 71.452 39.217, 71.668 37.850, 71.272 32.767 C 71.003 29.320, 70.576 26.275, 70.322 26 C 70.068 25.725, 67.980 25.031, 65.680 24.458 C 61.969 23.533, 61.465 23.056, 61.187 20.208 C 60.892 17.194, 60.636 17, 56.937 17 C 53.667 17, 53 17.339, 53 19 M 92.750 28.728 L 89 29.121 89 47.060 L 89 65 93 65 L 97 65 97 46.500 C 97 36.325, 96.888 28.076, 96.750 28.168 C 96.612 28.261, 94.813 28.513, 92.750 28.728 M 173.514 28.817 C 173.341 28.992, 175.893 37.204, 179.186 47.067 L 185.173 65 190.087 65 C 192.789 65, 195 64.829, 195 64.620 C 195 64.411, 197.697 56.424, 200.994 46.870 C 204.291 37.317, 206.991 29.254, 206.994 28.954 C 206.997 28.654, 204.880 28.654, 202.290 28.954 L 197.580 29.500 194.046 41.750 C 192.102 48.488, 190.284 53.996, 190.006 53.992 C 189.728 53.988, 187.925 48.298, 186 41.349 L 182.500 28.714 178.165 28.607 C 175.781 28.548, 173.688 28.643, 173.514 28.817 M 211.999 46.750 L 212 65 222 65 L 232 65 232 61 L 232 57 226 57 C 220.023 57, 220 56.989, 220 54.050 C 220 51.160, 220.117 51.094, 225.750 50.800 L 231.500 50.500 231.807 46.802 L 232.115 43.103 226.307 42.802 C 220.802 42.516, 220.484 42.357, 220.184 39.750 C 219.869 37.015, 219.900 37, 225.991 37 L 232.115 37 231.807 32.939 L 231.500 28.879 221.749 28.689 L 211.998 28.500 211.999 46.750 M 113 47 L 113 65 117.500 65 L 122 65 122 59.572 L 122 54.144 127.750 53.440 C 135.155 52.534, 138.400 50.215, 139.935 44.734 C 140.964 41.056, 140.891 39.769, 139.449 36.165 C 137.073 30.225, 134.182 29, 122.550 29 L 113 29 113 47 M 146.432 46.225 C 142.620 55.699, 139.350 63.799, 139.167 64.225 C 138.983 64.651, 141.112 65, 143.898 65 C 148.466 65, 149.023 64.755, 149.589 62.500 C 150.183 60.137, 150.593 60, 157.089 60 C 163.586 60, 163.996 60.137, 164.589 62.500 C 165.154 64.750, 165.718 65, 170.215 65 C 173.811 65, 175.075 64.649, 174.720 63.750 C 174.448 63.063, 171.204 54.963, 167.510 45.750 L 160.794 29 157.079 29 L 153.365 29 146.432 46.225 M 122 41.500 C 122 45.753, 122.152 46, 124.777 46 C 128.228 46, 132 43.463, 132 41.143 C 132 38.394, 129.914 37, 125.800 37 L 122 37 122 41.500 M 156.715 41 C 155.817 43.476, 153 52.332, 153 52.678 C 153 52.855, 154.800 53, 157 53 C 159.200 53, 160.994 52.663, 160.986 52.250 C 160.940 49.698, 157.165 39.757, 156.715 41 M 65.961 42.024 C 64.923 42.665, 64.822 43.222, 65.601 44.001 C 66.379 44.779, 67.024 44.675, 67.891 43.631 C 69.338 41.888, 67.993 40.768, 65.961 42.024 M 61 44.500 C 60.315 45.325, 59.248 46.007, 58.628 46.015 C 58.007 46.024, 56.854 46.439, 56.064 46.939 C 54.869 47.695, 54.850 48.114, 55.947 49.436 C 56.953 50.648, 57.590 50.755, 58.633 49.890 C 59.385 49.266, 60 48.149, 60 47.409 C 60 46.669, 60.563 46.269, 61.250 46.521 C 63.016 47.168, 65.392 45.444, 64.569 44.112 C 63.630 42.592, 62.480 42.717, 61 44.500 M 63.158 47.881 C 62.038 48.591, 62.037 49.086, 63.148 50.866 C 65.277 54.275, 67.737 52.898, 66.497 48.991 C 65.804 46.807, 65.180 46.600, 63.158 47.881 M 52.042 49.450 C 50.993 50.713, 50.993 51.287, 52.042 52.550 C 53.204 53.950, 53.478 53.950, 54.878 52.550 C 56.279 51.150, 56.279 50.850, 54.878 49.450 C 53.478 48.050, 53.204 48.050, 52.042 49.450 M 59.158 50.881 C 56.977 52.264, 59.882 56.172, 62.478 55.348 C 64.160 54.815, 64.286 54.950, 63.259 56.188 C 61.619 58.164, 64.209 62.146, 65.993 60.390 C 66.827 59.569, 66.391 58.073, 64.317 54.640 C 61.315 49.670, 61.201 49.587, 59.158 50.881 M 47.160 52.879 C 44.949 54.547, 44.939 54.635, 46.765 56.288 C 48.364 57.735, 48.910 57.786, 50.479 56.639 C 52.120 55.439, 52.162 55.070, 50.874 53.231 C 49.495 51.262, 49.326 51.246, 47.160 52.879 M 55 53.982 C 53.716 54.797, 53.822 55.257, 55.739 57.178 C 58.587 60.032, 60.936 58.472, 58.842 55.118 C 57.349 52.728, 57.095 52.653, 55 53.982 M 66.649 53.758 C 65.872 55.016, 66.856 58, 68.048 58 C 69.646 58, 69.927 56.282, 68.621 54.496 C 67.789 53.359, 67.064 53.087, 66.649 53.758 M 12 65.650 L 12 76.300 15.123 71.900 C 16.841 69.480, 19.847 65.823, 21.803 63.774 L 25.359 60.049 19.651 57.524 C 16.511 56.136, 13.506 55, 12.971 55 C 12.404 55, 12 59.425, 12 65.650 M 38.056 60.444 L 32.673 65.894 35.346 67.112 C 37.709 68.189, 38.314 68.054, 40.552 65.951 L 43.084 63.572 40.792 61.808 C 38.174 59.794, 39.036 59.381, 41.997 61.230 C 43.629 62.249, 44.266 62.162, 45.702 60.726 C 47.348 59.081, 47.334 58.890, 45.437 56.993 C 43.438 54.994, 43.437 54.994, 38.056 60.444 M 50.955 57.555 C 49.877 58.853, 50.013 59.457, 51.778 61.222 C 53.543 62.987, 54.147 63.123, 55.445 62.045 C 58.015 59.913, 57.197 62.185, 54.311 65.197 C 51.686 67.937, 51.668 68.038, 53.561 69.470 C 56.190 71.458, 56.310 71.424, 58.851 67.987 L 61.078 64.975 57.327 60.487 C 53.159 55.500, 52.798 55.334, 50.955 57.555 M 59.575 58.878 C 58.807 60.122, 60.625 64, 61.976 64 C 63.979 64, 64.126 61.682, 62.243 59.798 C 60.944 58.500, 60.008 58.177, 59.575 58.878 M 44.197 64.156 C 41.889 66.441, 40 68.608, 40 68.971 C 40 69.646, 47.120 73.321, 47.407 72.793 C 47.494 72.632, 48.195 71.681, 48.963 70.681 C 50.208 69.059, 50.042 68.602, 47.430 66.467 C 45.818 65.150, 45.007 64.056, 45.628 64.036 C 46.248 64.016, 47.315 64.675, 48 65.500 C 49.609 67.439, 51.902 67.420, 52.653 65.463 C 53.198 64.043, 50.526 60, 49.042 60 C 48.686 60, 46.506 61.870, 44.197 64.156 M 56.020 66.524 C 56.716 67.362, 57.491 67.842, 57.743 67.591 C 58.436 66.897, 57.027 65, 55.819 65 C 55.155 65, 55.231 65.574, 56.020 66.524 M 28.518 70.566 C 27.022 72.527, 25.989 74.322, 26.222 74.555 C 26.455 74.788, 27.966 75.243, 29.579 75.566 C 32.057 76.061, 32.881 75.652, 34.901 72.919 C 37.195 69.817, 37.217 69.632, 35.455 68.343 C 32.663 66.302, 31.481 66.680, 28.518 70.566 M 49.954 71.086 C 48.703 73.423, 48.631 73.276, 51.877 74.968 C 53.806 75.973, 54.416 75.951, 55.112 74.853 C 56.394 72.830, 56.226 72.378, 53.535 70.615 C 51.208 69.090, 51.008 69.116, 49.954 71.086 M 36.100 73.079 C 33.505 76.589, 33.409 76.334, 37.899 77.852 C 42.699 79.473, 43.560 79.320, 45.392 76.524 C 46.991 74.085, 46.956 74.018, 43.047 72.024 C 40.865 70.911, 38.921 70, 38.728 70 C 38.534 70, 37.352 71.385, 36.100 73.079 M 92 72.223 C 88.715 73.922, 85.724 80.052, 86.558 83.376 C 87.411 86.775, 91.416 90.655, 94.724 91.288 C 99.164 92.136, 106 88.534, 106 85.345 C 106 83.532, 102.222 83.635, 100.357 85.500 C 97.058 88.800, 91 85.997, 91 81.171 C 91 78.749, 94.260 75, 96.365 75 C 97.116 75, 98.874 75.900, 100.273 77 C 105.288 80.945, 108.230 78.443, 103.643 74.135 C 100.727 71.395, 95.320 70.507, 92 72.223 M 114.110 72.341 C 106.386 76.798, 107.914 88.469, 116.537 90.887 C 124.249 93.049, 131.466 85.973, 129.042 78.627 C 128.427 76.765, 127.077 74.474, 126.040 73.536 C 123.518 71.254, 117.107 70.612, 114.110 72.341 M 133 81 C 133 90.252, 133.146 91, 134.952 91 C 136.648 91, 136.944 90.181, 137.202 84.754 L 137.500 78.508 141.044 84.504 C 143.412 88.511, 145.320 90.606, 146.794 90.820 C 148.944 91.131, 149 90.882, 149 81.070 C 149 71.749, 148.855 71, 147.048 71 C 145.351 71, 145.056 71.819, 144.798 77.250 L 144.500 83.500 140.503 77.250 C 138.092 73.481, 135.810 71, 134.753 71 C 133.199 71, 133 72.137, 133 81 M 157.381 72.910 C 146.577 79.497, 155.974 95.870, 167.239 90.088 C 168.940 89.214, 170.987 87.487, 171.788 86.250 C 173.171 84.113, 173.108 84, 170.551 84 C 169.069 84, 167.182 84.675, 166.357 85.500 C 162.324 89.533, 155.875 84.881, 157.738 79.282 C 159.098 75.193, 163.289 73.984, 166.300 76.812 C 167.581 78.015, 169.603 79, 170.793 79 C 172.755 79, 172.848 78.760, 171.784 76.425 C 170.466 73.533, 166.265 70.998, 162.800 71.004 C 161.535 71.006, 159.096 71.863, 157.381 72.910 M 176 81 C 176 90.333, 176.133 91, 178 91 C 179.556 91, 180 90.333, 180 88 C 180 84.197, 181.037 84.199, 183.203 88.006 C 184.412 90.129, 185.665 91, 187.513 91 C 190.239 91, 190.176 90.223, 187.167 86.721 C 185.777 85.104, 185.837 84.803, 187.819 83.414 C 190.065 81.841, 190.802 76.812, 189.164 74.232 C 188.211 72.729, 182.642 71, 178.757 71 L 176 71 176 81 M 193.799 71.750 C 193.464 72.538, 193.464 76.981, 193.799 85.750 L 194 91 199 91 C 203.333 91, 204 90.733, 204 89 C 204 87.444, 203.333 87, 201 87 C 198.667 87, 198 86.556, 198 85 C 198 83.444, 198.667 83, 201 83 C 203.333 83, 204 82.556, 204 81 C 204 79.444, 203.333 79, 201 79 C 199 79, 198 78.500, 198 77.500 C 198 76.500, 199 76, 201 76 C 203.533 76, 204 75.611, 204 73.500 C 204 71.171, 203.663 71, 199.059 71 C 196.341 71, 193.974 71.338, 193.799 71.750 M 206.380 72.452 C 205.668 74.308, 206.707 76, 208.559 76 C 209.686 76, 210 77.637, 210 83.500 C 210 90.833, 210.056 91, 212.500 91 C 214.941 91, 215 90.826, 215 83.617 C 215 77.074, 215.228 76.174, 217 75.710 C 218.197 75.397, 219 74.346, 219 73.094 C 219 71.200, 218.423 71, 212.969 71 C 208.618 71, 206.782 71.405, 206.380 72.452 M 221.712 71.622 C 221.320 72.013, 221 76.533, 221 81.667 L 221 91 227 91 C 232.333 91, 233 90.778, 233 89 C 233 87.381, 232.333 87, 229.500 87 C 226.667 87, 226 86.619, 226 85 C 226 83.444, 226.667 83, 229 83 C 231.333 83, 232 82.556, 232 81 C 232 79.444, 231.333 79, 229 79 C 224.769 79, 224.987 76.224, 229.250 75.813 C 231.729 75.574, 232.500 75.025, 232.500 73.500 C 232.500 71.804, 231.735 71.455, 227.462 71.205 C 224.690 71.043, 222.103 71.230, 221.712 71.622 M 22.565 79.479 C 21.154 81.886, 20 84.064, 20 84.319 C 20 84.573, 21.610 84.969, 23.578 85.199 C 26.888 85.585, 27.304 85.325, 29.147 81.711 C 30.243 79.564, 30.996 77.716, 30.820 77.606 C 30.644 77.495, 29.292 76.887, 27.815 76.254 C 25.267 75.161, 25 75.325, 22.565 79.479 M 46.171 77.097 C 44.649 79.535, 44.538 79.379, 48.796 80.815 C 51.792 81.827, 52.167 81.727, 52.924 79.714 C 53.577 77.980, 53.296 77.237, 51.629 76.285 C 48.619 74.568, 47.662 74.710, 46.171 77.097 M 115.655 76.829 C 113.726 78.960, 113.467 84.067, 115.200 85.800 C 117.189 87.789, 121.728 87.226, 123.443 84.777 C 125.538 81.786, 125.403 79.403, 123 77 C 120.509 74.509, 117.811 74.446, 115.655 76.829 M 180.184 78.750 C 180.427 80.869, 180.959 81.423, 182.500 81.166 C 187.069 80.404, 187.039 76, 182.465 76 C 180.221 76, 179.910 76.375, 180.184 78.750 M 30.451 81.461 C 29.426 83.364, 28.793 85.103, 29.044 85.325 C 29.295 85.547, 31.844 86.028, 34.709 86.394 C 39.796 87.042, 39.957 86.984, 41.533 83.936 C 42.421 82.219, 43.002 80.712, 42.824 80.587 C 42.208 80.156, 34.264 78, 33.291 78 C 32.754 78, 31.476 79.557, 30.451 81.461 M 42.851 83.428 C 41.406 86.599, 41.802 87.030, 46.779 87.697 C 50.422 88.186, 50.762 88.025, 51.228 85.589 C 51.799 82.598, 51.695 82.491, 47.263 81.541 C 44.430 80.934, 43.880 81.169, 42.851 83.428" stroke="none" fill="#24215c" fill-rule="evenodd"/><path d="M -0 59.004 L -0 118.008 127.250 117.754 L 254.500 117.500 254.758 58.750 L 255.016 0 127.508 0 L 0 0 -0 59.004 M 0.469 59.500 C 0.469 91.950, 0.595 105.080, 0.750 88.678 C 0.904 72.277, 0.904 45.727, 0.749 29.678 C 0.595 13.630, 0.469 27.050, 0.469 59.500 M 53 19 C 53 21.408, 53.070 21.404, 45.922 19.398 C 39.650 17.638, 40.640 17.476, 20.250 23.590 L 12 26.064 12 38.373 L 12 50.682 17.250 51.890 C 22.270 53.046, 30.277 56.196, 34.469 58.665 C 36.335 59.764, 36.201 60.078, 31.927 64.662 C 23.667 73.522, 15.393 87.892, 16.253 91.885 C 16.458 92.836, 17.126 91.957, 17.878 89.750 C 19.020 86.396, 19.516 86, 22.578 86 C 26.169 86, 26.677 86.866, 24.965 90.066 C 24.371 91.175, 24.325 92, 24.856 92 C 25.366 92, 26.066 90.875, 26.411 89.500 C 27.085 86.812, 28.473 86.522, 35.275 87.646 C 38.521 88.182, 38.967 88.565, 38.462 90.385 L 37.875 92.500 39.687 90.398 C 41.150 88.701, 42.320 88.384, 45.750 88.753 C 48.500 89.049, 50 89.702, 50 90.605 C 50 91.714, 52.257 92, 61 92 L 72 92 71.965 74.750 C 71.938 61.998, 71.569 56.849, 70.547 55.003 C 69.561 53.221, 69.468 52.141, 70.224 51.230 C 71.015 50.277, 70.913 50.096, 69.820 50.516 C 67.617 51.361, 65.644 46.541, 67.546 44.962 C 68.705 44, 69.169 44.225, 69.966 46.136 C 70.903 48.380, 70.941 48.348, 70.726 45.500 C 70.602 43.850, 70.050 42.154, 69.500 41.732 C 68.877 41.253, 69.115 40.600, 70.130 39.999 C 71.452 39.217, 71.668 37.850, 71.272 32.767 C 71.003 29.320, 70.576 26.275, 70.322 26 C 70.068 25.725, 67.980 25.031, 65.680 24.458 C 61.969 23.533, 61.465 23.056, 61.187 20.208 C 60.892 17.194, 60.636 17, 56.937 17 C 53.667 17, 53 17.339, 53 19 M 92.750 28.728 L 89 29.121 89 47.060 L 89 65 93 65 L 97 65 97 46.500 C 97 36.325, 96.888 28.076, 96.750 28.168 C 96.612 28.261, 94.813 28.513, 92.750 28.728 M 173.514 28.817 C 173.341 28.992, 175.893 37.204, 179.186 47.067 L 185.173 65 190.087 65 C 192.789 65, 195 64.829, 195 64.620 C 195 64.411, 197.697 56.424, 200.994 46.870 C 204.291 37.317, 206.991 29.254, 206.994 28.954 C 206.997 28.654, 204.880 28.654, 202.290 28.954 L 197.580 29.500 194.046 41.750 C 192.102 48.488, 190.284 53.996, 190.006 53.992 C 189.728 53.988, 187.925 48.298, 186 41.349 L 182.500 28.714 178.165 28.607 C 175.781 28.548, 173.688 28.643, 173.514 28.817 M 211.999 46.750 L 212 65 222 65 L 232 65 232 61 L 232 57 226 57 C 220.023 57, 220 56.989, 220 54.050 C 220 51.160, 220.117 51.094, 225.750 50.800 L 231.500 50.500 231.807 46.802 L 232.115 43.103 226.307 42.802 C 220.802 42.516, 220.484 42.357, 220.184 39.750 C 219.869 37.015, 219.900 37, 225.991 37 L 232.115 37 231.807 32.939 L 231.500 28.879 221.749 28.689 L 211.998 28.500 211.999 46.750 M 113 47 L 113 65 117.500 65 L 122 65 122 59.572 L 122 54.144 127.750 53.440 C 135.155 52.534, 138.400 50.215, 139.935 44.734 C 140.964 41.056, 140.891 39.769, 139.449 36.165 C 137.073 30.225, 134.182 29, 122.550 29 L 113 29 113 47 M 146.432 46.225 C 142.620 55.699, 139.350 63.799, 139.167 64.225 C 138.983 64.651, 141.112 65, 143.898 65 C 148.466 65, 149.023 64.755, 149.589 62.500 C 150.183 60.137, 150.593 60, 157.089 60 C 163.586 60, 163.996 60.137, 164.589 62.500 C 165.154 64.750, 165.718 65, 170.215 65 C 173.811 65, 175.075 64.649, 174.720 63.750 C 174.448 63.063, 171.204 54.963, 167.510 45.750 L 160.794 29 157.079 29 L 153.365 29 146.432 46.225 M 122 41.500 C 122 45.753, 122.152 46, 124.777 46 C 128.228 46, 132 43.463, 132 41.143 C 132 38.394, 129.914 37, 125.800 37 L 122 37 122 41.500 M 156.715 41 C 155.817 43.476, 153 52.332, 153 52.678 C 153 52.855, 154.800 53, 157 53 C 159.200 53, 160.994 52.663, 160.986 52.250 C 160.940 49.698, 157.165 39.757, 156.715 41 M 65.961 42.024 C 64.923 42.665, 64.822 43.222, 65.601 44.001 C 66.379 44.779, 67.024 44.675, 67.891 43.631 C 69.338 41.888, 67.993 40.768, 65.961 42.024 M 61 44.500 C 60.315 45.325, 59.248 46.007, 58.628 46.015 C 58.007 46.024, 56.854 46.439, 56.064 46.939 C 54.869 47.695, 54.850 48.114, 55.947 49.436 C 56.953 50.648, 57.590 50.755, 58.633 49.890 C 59.385 49.266, 60 48.149, 60 47.409 C 60 46.669, 60.563 46.269, 61.250 46.521 C 63.016 47.168, 65.392 45.444, 64.569 44.112 C 63.630 42.592, 62.480 42.717, 61 44.500 M 63.158 47.881 C 62.038 48.591, 62.037 49.086, 63.148 50.866 C 65.277 54.275, 67.737 52.898, 66.497 48.991 C 65.804 46.807, 65.180 46.600, 63.158 47.881 M 52.042 49.450 C 50.993 50.713, 50.993 51.287, 52.042 52.550 C 53.204 53.950, 53.478 53.950, 54.878 52.550 C 56.279 51.150, 56.279 50.850, 54.878 49.450 C 53.478 48.050, 53.204 48.050, 52.042 49.450 M 59.158 50.881 C 56.977 52.264, 59.882 56.172, 62.478 55.348 C 64.160 54.815, 64.286 54.950, 63.259 56.188 C 61.619 58.164, 64.209 62.146, 65.993 60.390 C 66.827 59.569, 66.391 58.073, 64.317 54.640 C 61.315 49.670, 61.201 49.587, 59.158 50.881 M 47.160 52.879 C 44.949 54.547, 44.939 54.635, 46.765 56.288 C 48.364 57.735, 48.910 57.786, 50.479 56.639 C 52.120 55.439, 52.162 55.070, 50.874 53.231 C 49.495 51.262, 49.326 51.246, 47.160 52.879 M 55 53.982 C 53.716 54.797, 53.822 55.257, 55.739 57.178 C 58.587 60.032, 60.936 58.472, 58.842 55.118 C 57.349 52.728, 57.095 52.653, 55 53.982 M 66.649 53.758 C 65.872 55.016, 66.856 58, 68.048 58 C 69.646 58, 69.927 56.282, 68.621 54.496 C 67.789 53.359, 67.064 53.087, 66.649 53.758 M 12 65.650 L 12 76.300 15.123 71.900 C 16.841 69.480, 19.847 65.823, 21.803 63.774 L 25.359 60.049 19.651 57.524 C 16.511 56.136, 13.506 55, 12.971 55 C 12.404 55, 12 59.425, 12 65.650 M 38.056 60.444 L 32.673 65.894 35.346 67.112 C 37.709 68.189, 38.314 68.054, 40.552 65.951 L 43.084 63.572 40.792 61.808 C 38.174 59.794, 39.036 59.381, 41.997 61.230 C 43.629 62.249, 44.266 62.162, 45.702 60.726 C 47.348 59.081, 47.334 58.890, 45.437 56.993 C 43.438 54.994, 43.437 54.994, 38.056 60.444 M 50.955 57.555 C 49.877 58.853, 50.013 59.457, 51.778 61.222 C 53.543 62.987, 54.147 63.123, 55.445 62.045 C 58.015 59.913, 57.197 62.185, 54.311 65.197 C 51.686 67.937, 51.668 68.038, 53.561 69.470 C 56.190 71.458, 56.310 71.424, 58.851 67.987 L 61.078 64.975 57.327 60.487 C 53.159 55.500, 52.798 55.334, 50.955 57.555 M 59.575 58.878 C 58.807 60.122, 60.625 64, 61.976 64 C 63.979 64, 64.126 61.682, 62.243 59.798 C 60.944 58.500, 60.008 58.177, 59.575 58.878 M 44.197 64.156 C 41.889 66.441, 40 68.608, 40 68.971 C 40 69.646, 47.120 73.321, 47.407 72.793 C 47.494 72.632, 48.195 71.681, 48.963 70.681 C 50.208 69.059, 50.042 68.602, 47.430 66.467 C 45.818 65.150, 45.007 64.056, 45.628 64.036 C 46.248 64.016, 47.315 64.675, 48 65.500 C 49.609 67.439, 51.902 67.420, 52.653 65.463 C 53.198 64.043, 50.526 60, 49.042 60 C 48.686 60, 46.506 61.870, 44.197 64.156 M 56.020 66.524 C 56.716 67.362, 57.491 67.842, 57.743 67.591 C 58.436 66.897, 57.027 65, 55.819 65 C 55.155 65, 55.231 65.574, 56.020 66.524 M 28.518 70.566 C 27.022 72.527, 25.989 74.322, 26.222 74.555 C 26.455 74.788, 27.966 75.243, 29.579 75.566 C 32.057 76.061, 32.881 75.652, 34.901 72.919 C 37.195 69.817, 37.217 69.632, 35.455 68.343 C 32.663 66.302, 31.481 66.680, 28.518 70.566 M 49.954 71.086 C 48.703 73.423, 48.631 73.276, 51.877 74.968 C 53.806 75.973, 54.416 75.951, 55.112 74.853 C 56.394 72.830, 56.226 72.378, 53.535 70.615 C 51.208 69.090, 51.008 69.116, 49.954 71.086 M 36.100 73.079 C 33.505 76.589, 33.409 76.334, 37.899 77.852 C 42.699 79.473, 43.560 79.320, 45.392 76.524 C 46.991 74.085, 46.956 74.018, 43.047 72.024 C 40.865 70.911, 38.921 70, 38.728 70 C 38.534 70, 37.352 71.385, 36.100 73.079 M 92 72.223 C 88.715 73.922, 85.724 80.052, 86.558 83.376 C 87.411 86.775, 91.416 90.655, 94.724 91.288 C 99.164 92.136, 106 88.534, 106 85.345 C 106 83.532, 102.222 83.635, 100.357 85.500 C 97.058 88.800, 91 85.997, 91 81.171 C 91 78.749, 94.260 75, 96.365 75 C 97.116 75, 98.874 75.900, 100.273 77 C 105.288 80.945, 108.230 78.443, 103.643 74.135 C 100.727 71.395, 95.320 70.507, 92 72.223 M 114.110 72.341 C 106.386 76.798, 107.914 88.469, 116.537 90.887 C 124.249 93.049, 131.466 85.973, 129.042 78.627 C 128.427 76.765, 127.077 74.474, 126.040 73.536 C 123.518 71.254, 117.107 70.612, 114.110 72.341 M 133 81 C 133 90.252, 133.146 91, 134.952 91 C 136.648 91, 136.944 90.181, 137.202 84.754 L 137.500 78.508 141.044 84.504 C 143.412 88.511, 145.320 90.606, 146.794 90.820 C 148.944 91.131, 149 90.882, 149 81.070 C 149 71.749, 148.855 71, 147.048 71 C 145.351 71, 145.056 71.819, 144.798 77.250 L 144.500 83.500 140.503 77.250 C 138.092 73.481, 135.810 71, 134.753 71 C 133.199 71, 133 72.137, 133 81 M 157.381 72.910 C 146.577 79.497, 155.974 95.870, 167.239 90.088 C 168.940 89.214, 170.987 87.487, 171.788 86.250 C 173.171 84.113, 173.108 84, 170.551 84 C 169.069 84, 167.182 84.675, 166.357 85.500 C 162.324 89.533, 155.875 84.881, 157.738 79.282 C 159.098 75.193, 163.289 73.984, 166.300 76.812 C 167.581 78.015, 169.603 79, 170.793 79 C 172.755 79, 172.848 78.760, 171.784 76.425 C 170.466 73.533, 166.265 70.998, 162.800 71.004 C 161.535 71.006, 159.096 71.863, 157.381 72.910 M 176 81 C 176 90.333, 176.133 91, 178 91 C 179.556 91, 180 90.333, 180 88 C 180 84.197, 181.037 84.199, 183.203 88.006 C 184.412 90.129, 185.665 91, 187.513 91 C 190.239 91, 190.176 90.223, 187.167 86.721 C 185.777 85.104, 185.837 84.803, 187.819 83.414 C 190.065 81.841, 190.802 76.812, 189.164 74.232 C 188.211 72.729, 182.642 71, 178.757 71 L 176 71 176 81 M 193.799 71.750 C 193.464 72.538, 193.464 76.981, 193.799 85.750 L 194 91 199 91 C 203.333 91, 204 90.733, 204 89 C 204 87.444, 203.333 87, 201 87 C 198.667 87, 198 86.556, 198 85 C 198 83.444, 198.667 83, 201 83 C 203.333 83, 204 82.556, 204 81 C 204 79.444, 203.333 79, 201 79 C 199 79, 198 78.500, 198 77.500 C 198 76.500, 199 76, 201 76 C 203.533 76, 204 75.611, 204 73.500 C 204 71.171, 203.663 71, 199.059 71 C 196.341 71, 193.974 71.338, 193.799 71.750 M 206.380 72.452 C 205.668 74.308, 206.707 76, 208.559 76 C 209.686 76, 210 77.637, 210 83.500 C 210 90.833, 210.056 91, 212.500 91 C 214.941 91, 215 90.826, 215 83.617 C 215 77.074, 215.228 76.174, 217 75.710 C 218.197 75.397, 219 74.346, 219 73.094 C 219 71.200, 218.423 71, 212.969 71 C 208.618 71, 206.782 71.405, 206.380 72.452 M 221.712 71.622 C 221.320 72.013, 221 76.533, 221 81.667 L 221 91 227 91 C 232.333 91, 233 90.778, 233 89 C 233 87.381, 232.333 87, 229.500 87 C 226.667 87, 226 86.619, 226 85 C 226 83.444, 226.667 83, 229 83 C 231.333 83, 232 82.556, 232 81 C 232 79.444, 231.333 79, 229 79 C 224.769 79, 224.987 76.224, 229.250 75.813 C 231.729 75.574, 232.500 75.025, 232.500 73.500 C 232.500 71.804, 231.735 71.455, 227.462 71.205 C 224.690 71.043, 222.103 71.230, 221.712 71.622 M 22.565 79.479 C 21.154 81.886, 20 84.064, 20 84.319 C 20 84.573, 21.610 84.969, 23.578 85.199 C 26.888 85.585, 27.304 85.325, 29.147 81.711 C 30.243 79.564, 30.996 77.716, 30.820 77.606 C 30.644 77.495, 29.292 76.887, 27.815 76.254 C 25.267 75.161, 25 75.325, 22.565 79.479 M 46.171 77.097 C 44.649 79.535, 44.538 79.379, 48.796 80.815 C 51.792 81.827, 52.167 81.727, 52.924 79.714 C 53.577 77.980, 53.296 77.237, 51.629 76.285 C 48.619 74.568, 47.662 74.710, 46.171 77.097 M 115.655 76.829 C 113.726 78.960, 113.467 84.067, 115.200 85.800 C 117.189 87.789, 121.728 87.226, 123.443 84.777 C 125.538 81.786, 125.403 79.403, 123 77 C 120.509 74.509, 117.811 74.446, 115.655 76.829 M 180.184 78.750 C 180.427 80.869, 180.959 81.423, 182.500 81.166 C 187.069 80.404, 187.039 76, 182.465 76 C 180.221 76, 179.910 76.375, 180.184 78.750 M 30.451 81.461 C 29.426 83.364, 28.793 85.103, 29.044 85.325 C 29.295 85.547, 31.844 86.028, 34.709 86.394 C 39.796 87.042, 39.957 86.984, 41.533 83.936 C 42.421 82.219, 43.002 80.712, 42.824 80.587 C 42.208 80.156, 34.264 78, 33.291 78 C 32.754 78, 31.476 79.557, 30.451 81.461 M 42.851 83.428 C 41.406 86.599, 41.802 87.030, 46.779 87.697 C 50.422 88.186, 50.762 88.025, 51.228 85.589 C 51.799 82.598, 51.695 82.491, 47.263 81.541 C 44.430 80.934, 43.880 81.169, 42.851 83.428" stroke="none" fill="#f7e808" fill-rule="evenodd"/></svg>